<?xml version="1.0" standalone="no"?>
<!DOCTYPE svg PUBLIC "-//W3C//DTD SVG 20010904//EN"
 "http://www.w3.org/TR/2001/REC-SVG-20010904/DTD/svg10.dtd">
<svg version="1.0" xmlns="http://www.w3.org/2000/svg"
 width="500.000000pt" height="500.000000pt" viewBox="0 0 500.000000 500.000000"
 preserveAspectRatio="xMidYMid meet">
<metadata>
Created by potrace 1.11, written by Peter Selinger 2001-2013
</metadata>
<g transform="translate(0.000000,500.000000) scale(0.100000,-0.100000)"
fill="#000000" stroke="none">
<path d="M1446 4985 c-3 -8 -2 -15 3 -15 5 0 14 7 21 15 10 12 10 15 -3 15 -8
0 -17 -7 -21 -15z"/>
<path d="M1517 4984 c3 -7 9 -14 14 -14 14 0 10 17 -5 23 -10 4 -13 1 -9 -9z"/>
<path d="M1608 4993 c7 -3 16 -2 19 1 4 3 -2 6 -13 5 -11 0 -14 -3 -6 -6z"/>
<path d="M1750 4991 c0 -3 5 -13 11 -21 9 -13 10 -12 5 3 -6 18 9 24 19 7 4
-6 14 -10 23 -8 10 1 23 -1 30 -6 8 -5 18 -4 25 3 8 8 8 11 -2 11 -7 0 -10 4
-6 10 3 5 -17 9 -50 9 -30 -1 -55 -4 -55 -8z"/>
<path d="M1889 4984 c11 -8 25 -12 31 -9 6 4 7 -1 3 -11 -5 -13 -3 -16 10 -11
9 3 17 2 17 -4 0 -6 5 -7 10 -4 6 3 10 2 10 -3 0 -13 60 -2 60 12 1 6 6 5 13
-4 7 -8 21 -16 32 -18 18 -2 19 -2 2 8 -9 6 -15 15 -12 21 4 5 2 9 -4 9 -6 0
-8 7 -5 15 5 11 -1 15 -26 15 -18 0 -29 -4 -25 -10 3 -5 1 -10 -4 -10 -6 0
-11 5 -11 12 0 6 -3 8 -6 5 -4 -4 -1 -13 6 -22 7 -9 9 -19 5 -23 -4 -4 -10 -1
-12 6 -3 6 -9 9 -15 6 -7 -4 -7 2 -3 17 7 22 7 23 -10 9 -11 -8 -16 -10 -12
-4 5 8 -7 12 -34 12 -40 1 -41 0 -20 -14z"/>
<path d="M2076 4985 c3 -8 9 -14 12 -13 22 2 30 -4 25 -22 -3 -11 0 -20 6 -20
5 0 8 7 5 15 -7 18 32 29 77 20 19 -4 42 -7 51 -8 9 -1 14 -5 11 -10 -7 -11
17 -38 28 -31 5 3 9 0 9 -5 0 -6 5 -11 11 -11 8 0 8 5 -1 15 -7 8 -19 15 -27
15 -8 0 -12 4 -9 9 3 4 18 7 33 7 15 -1 40 2 55 5 20 6 25 4 22 -6 -3 -8 -13
-11 -21 -8 -11 4 -14 3 -9 -6 4 -7 13 -10 19 -8 7 2 22 0 34 -4 14 -5 23 -4
27 4 3 8 7 9 13 2 4 -5 14 -11 22 -13 11 -2 12 0 3 11 -9 10 -9 21 -2 38 10
24 10 24 7 -3 -2 -15 1 -29 8 -32 9 -3 11 3 8 17 -3 16 -2 18 5 8 8 -11 10
-11 15 0 4 10 6 10 6 -2 1 -17 31 -36 31 -20 0 5 -6 12 -12 14 -7 3 -3 6 9 6
24 1 56 -26 48 -40 -4 -5 1 -9 9 -9 9 0 16 5 16 11 0 5 6 7 13 4 6 -4 4 0 -7
9 -10 8 -16 22 -13 31 4 8 2 15 -3 15 -6 0 -10 5 -10 11 0 6 9 9 20 6 11 -3
20 -1 20 4 0 12 -479 10 -503 -3 -14 -7 -17 -7 -13 1 5 7 -4 11 -23 11 -23 0
-29 -4 -25 -15z m164 -5 c0 -5 -2 -10 -4 -10 -3 0 -8 5 -11 10 -3 6 -1 10 4
10 6 0 11 -4 11 -10z m344 2 c2 -4 -4 -8 -15 -8 -10 0 -19 4 -19 8 0 4 6 8 14
8 8 0 17 -4 20 -8z m-57 -8 c-3 -3 -12 -4 -19 -1 -8 3 -5 6 6 6 11 1 17 -2 13
-5z m-112 -34 c-3 -5 -11 -10 -16 -10 -6 0 -7 5 -4 10 3 6 11 10 16 10 6 0 7
-4 4 -10z"/>
<path d="M2646 4978 c-18 -20 -18 -21 9 -16 19 4 23 2 16 -5 -6 -6 -10 -20
-10 -31 1 -19 2 -19 6 -3 4 14 11 17 28 13 31 -8 44 13 20 30 -10 8 -16 16
-13 19 3 3 13 -1 21 -10 9 -8 20 -15 26 -15 5 0 13 -9 16 -20 3 -11 13 -20 21
-20 12 0 18 -12 15 -32 0 -5 9 -5 39 2 3 0 -4 7 -14 15 -11 8 -15 15 -8 15 6
0 9 7 6 15 -5 11 -2 13 10 9 9 -3 13 -10 10 -15 -7 -12 16 -7 32 6 6 5 10 21
8 35 l-3 25 19 -25 c20 -27 18 -40 -7 -40 -25 0 -7 -12 22 -15 22 -3 30 5 26
27 0 4 6 5 14 2 8 -4 15 -10 15 -14 0 -5 10 -6 22 -2 12 3 19 1 15 -5 -3 -5 0
-10 8 -10 11 0 12 4 4 14 -9 10 -8 13 0 13 17 0 41 -26 33 -35 -4 -5 0 -4 8 1
8 4 20 9 25 10 6 0 16 2 23 2 6 1 12 9 12 17 0 8 3 15 8 16 4 0 17 2 30 5 12
2 22 -1 22 -7 0 -5 -5 -7 -11 -4 -6 4 -5 -2 2 -13 13 -20 13 -20 29 -1 17 18
17 18 28 -4 6 -12 11 -16 11 -9 1 7 5 11 10 7 6 -3 24 8 41 25 17 16 25 30 19
30 -7 0 -10 2 -7 5 10 11 59 -15 52 -27 -4 -7 -3 -8 4 -4 7 4 20 2 29 -3 16
-9 16 -10 -3 -11 -13 0 -24 -8 -27 -20 -6 -24 8 -27 17 -4 6 17 45 11 58 -10
5 -7 8 -6 8 4 0 11 12 15 43 15 23 0 47 -3 54 -8 6 -4 15 -2 19 4 4 8 3 9 -4
5 -12 -7 -17 25 -6 37 12 11 33 -5 27 -20 -4 -11 -2 -14 5 -9 7 4 21 4 33 1
16 -5 18 -10 8 -21 -16 -19 0 -18 45 6 29 14 35 21 23 26 -9 3 -13 12 -10 22
6 13 8 13 14 -4 7 -17 8 -17 8 -1 1 10 9 17 22 17 11 0 18 -4 14 -9 -3 -5 -1
-12 5 -16 5 -3 10 -12 10 -18 0 -7 -9 -1 -20 13 -19 25 -19 25 -17 3 1 -13 5
-23 9 -23 4 0 8 -6 8 -13 0 -8 6 -14 14 -14 8 0 12 6 9 14 -3 7 0 13 7 13 6 0
8 4 5 10 -3 6 1 7 9 4 9 -3 16 -10 16 -15 0 -5 5 -8 12 -6 20 4 36 21 30 32
-3 6 1 5 9 -1 11 -9 17 -9 26 1 6 7 9 16 6 19 -4 3 1 6 10 6 27 0 20 15 -8 18
-14 1 -29 -6 -35 -16 -11 -16 -11 -16 -6 1 5 16 -22 17 -490 17 -388 0 -493
-3 -488 -13 5 -9 4 -9 -7 1 -8 7 -43 12 -92 12 -60 0 -76 -3 -71 -12 6 -10 5
-10 -7 -1 -12 10 -19 8 -33 -9z m284 -8 c0 -5 -2 -10 -4 -10 -3 0 -8 5 -11 10
-3 6 -1 10 4 10 6 0 11 -4 11 -10z m76 -7 c-3 -19 -36 -32 -36 -14 0 8 25 28
37 31 1 0 0 -8 -1 -17z m64 -13 c0 -5 -2 -10 -4 -10 -3 0 -8 5 -11 10 -3 6 -1
10 4 10 6 0 11 -4 11 -10z m210 -5 c0 -11 -29 -11 -33 -1 -4 10 1 12 14 9 10
-3 19 -7 19 -8z"/>
<path d="M3941 4978 c12 -21 24 -24 16 -4 -4 10 2 16 16 19 13 3 9 4 -10 4
-27 -1 -30 -4 -22 -19z"/>
<path d="M4110 4990 c0 -5 5 -10 11 -10 5 0 7 5 4 10 -3 6 -8 10 -11 10 -2 0
-4 -4 -4 -10z"/>
<path d="M3911 4974 c0 -11 3 -14 6 -6 3 7 2 16 -1 19 -3 4 -6 -2 -5 -13z"/>
<path d="M3988 4957 c4 -14 7 -15 13 -6 6 10 11 10 22 1 15 -13 27 -6 27 16 0
12 -2 12 -17 1 -9 -8 -14 -9 -10 -3 4 8 -1 11 -16 10 -18 -1 -23 -6 -19 -19z"/>
<path d="M3315 4960 c-8 -13 5 -13 25 0 13 8 13 10 -2 10 -9 0 -20 -4 -23 -10z"/>
<path d="M1808 4953 c6 -2 12 -9 12 -14 0 -6 -6 -7 -12 -3 -7 4 -9 3 -5 -2 10
-11 67 -13 67 -2 0 4 -9 8 -19 8 -11 0 -23 5 -26 10 -3 6 -12 10 -18 9 -9 0
-9 -2 1 -6z"/>
<path d="M1890 4951 c0 -6 4 -13 10 -16 6 -3 7 1 4 9 -7 18 -14 21 -14 7z"/>
<path d="M2156 4935 c25 -19 35 -19 28 0 -4 8 -16 15 -27 15 -20 0 -20 0 -1
-15z"/>
<path d="M3333 4935 c0 -8 4 -15 9 -15 4 0 8 7 8 15 0 8 -4 15 -8 15 -5 0 -9
-7 -9 -15z"/>
<path d="M3302 4931 c-11 -7 -11 -9 2 -14 10 -4 16 -1 16 8 0 17 -1 17 -18 6z"/>
<path d="M2738 4923 c7 -3 16 -2 19 1 4 3 -2 6 -13 5 -11 0 -14 -3 -6 -6z"/>
<path d="M2515 4910 c-4 -6 -5 -10 -3 -11 25 -6 38 -6 38 1 0 12 -29 20 -35
10z"/>
<path d="M3510 4899 c0 -5 5 -7 10 -4 6 3 10 8 10 11 0 2 -4 4 -10 4 -5 0 -10
-5 -10 -11z"/>
<path d="M3168 4893 c7 -3 16 -2 19 1 4 3 -2 6 -13 5 -11 0 -14 -3 -6 -6z"/>
<path d="M3550 4890 c0 -5 7 -7 15 -4 8 4 15 8 15 10 0 2 -7 4 -15 4 -8 0 -15
-4 -15 -10z"/>
<path d="M3730 4886 c0 -2 7 -7 16 -10 8 -3 12 -2 9 4 -6 10 -25 14 -25 6z"/>
<path d="M700 4466 c-160 -72 -633 -282 -667 -296 -30 -11 -45 -30 -25 -30 18
0 523 227 692 311 135 68 135 76 0 15z"/>
<path d="M365 4205 c-44 -18 -93 -38 -110 -44 -30 -12 -91 -38 -197 -85 -32
-14 -58 -29 -58 -34 0 -5 81 25 180 68 100 43 189 81 198 84 9 3 37 14 62 25
75 33 11 21 -75 -14z"/>
<path d="M45 4020 c-7 -12 19 -12 55 0 22 7 21 8 -12 9 -20 1 -40 -3 -43 -9z"/>
<path d="M1790 3995 c-47 -8 -112 -19 -145 -25 -33 -6 -91 -15 -130 -20 -224
-30 -694 -118 -1025 -194 -113 -25 -198 -38 -315 -45 -88 -6 -163 -11 -167
-11 -5 0 -8 -5 -8 -11 0 -9 25 -10 87 -6 93 6 94 -2 3 -23 -84 -18 -90 -20
-90 -35 0 -9 45 -1 173 32 l172 44 375 6 c253 5 356 10 315 15 -33 4 -159 7
-280 7 -247 -1 -260 -1 -254 5 8 9 652 135 974 191 405 71 467 83 430 83 -16
0 -68 -6 -115 -13z"/>
<path d="M225 3899 c-16 -6 -14 -8 13 -8 33 -1 41 4 20 12 -7 2 -22 1 -33 -4z"/>
<path d="M1100 3708 c0 -5 53 -7 118 -6 121 1 107 6 -36 10 -45 2 -82 0 -82
-4z"/>
<path d="M1383 3693 c15 -2 39 -2 55 0 15 2 2 4 -28 4 -30 0 -43 -2 -27 -4z"/>
<path d="M2060 3478 c-204 -55 -568 -178 -702 -237 -189 -84 -274 -111 -345
-111 -38 0 -63 -4 -63 -11 0 -5 4 -8 8 -5 5 3 22 1 38 -4 23 -8 17 -9 -31 -6
-47 3 -66 -1 -88 -16 -15 -11 -27 -26 -27 -35 0 -9 -6 -13 -14 -10 -7 3 -20 0
-27 -6 -7 -7 -6 -3 4 9 9 11 14 24 10 29 -5 4 -1 6 9 2 9 -3 23 2 32 12 16 18
12 19 -76 27 -51 5 -105 8 -120 8 -16 -1 -26 2 -23 6 8 12 -55 18 -94 9 -20
-5 -61 -9 -92 -9 -71 0 -281 -38 -290 -52 -4 -6 -21 -8 -40 -5 -19 3 -43 2
-54 -2 -19 -8 -19 -8 0 -19 28 -15 10 -28 -20 -14 -53 24 -52 25 -54 -163 l-2
-175 43 0 c24 0 66 8 93 19 84 31 91 33 51 11 -31 -17 -36 -24 -25 -32 10 -7
4 -8 -18 -4 -25 4 -33 2 -33 -9 0 -8 6 -15 13 -16 6 0 1 -4 -11 -10 -13 -5
-28 -7 -33 -3 -5 3 -9 1 -9 -5 0 -5 -8 -12 -18 -15 -18 -6 46 2 88 10 l25 5
-27 -23 c-22 -19 -37 -23 -70 -20 -24 2 -48 9 -55 14 -9 7 -12 -5 -11 -50 l1
-60 39 18 c22 10 45 23 51 29 6 6 29 11 51 12 37 0 39 1 18 11 -22 11 -21 12
19 35 23 12 54 23 69 23 20 0 35 9 49 29 12 16 33 32 48 36 15 3 57 28 93 54
87 64 104 71 50 21 -55 -51 -44 -45 85 40 127 84 367 224 423 245 23 10 42 21
42 26 0 5 20 9 45 9 25 0 45 -4 45 -9 0 -5 8 -12 18 -14 9 -3 -12 -5 -48 -6
-54 -1 -73 -7 -115 -33 -27 -18 -85 -49 -129 -70 -89 -44 -284 -170 -335 -218
-19 -18 -50 -37 -68 -44 -46 -16 -45 -31 5 -34 56 -4 44 -22 -16 -23 -30 0
-40 -3 -29 -8 17 -6 17 -8 3 -20 -8 -7 -20 -10 -27 -6 -15 10 -31 -17 -16 -27
9 -6 6 -13 -8 -24 -15 -11 -33 -13 -72 -8 -34 4 -53 3 -53 -4 0 -6 11 -9 24
-8 18 2 23 -1 18 -12 -4 -12 -1 -14 14 -9 19 7 19 7 0 -8 -11 -8 -25 -15 -30
-15 -6 0 -4 5 4 11 15 11 4 9 -80 -8 l-25 -6 24 27 c29 31 20 34 -19 6 -15
-11 -30 -17 -33 -13 -4 3 -28 -9 -55 -26 -27 -17 -56 -31 -65 -31 -14 0 -17
-10 -17 -47 l0 -46 23 21 c22 21 74 32 62 13 -3 -5 3 -11 12 -13 11 -2 -4 -13
-39 -28 l-58 -24 0 -108 0 -109 78 42 c94 50 102 56 102 80 0 21 -16 26 -22 7
-3 -9 -6 -9 -12 0 -5 9 10 21 48 38 53 24 57 25 83 9 25 -15 32 -15 63 -1 l35
15 -35 14 -34 15 68 31 c38 17 81 31 95 31 14 0 39 7 55 15 15 8 56 19 91 25
34 5 89 22 121 36 101 44 185 81 314 140 69 31 145 64 170 74 25 10 72 31 105
48 33 17 74 34 90 37 28 7 29 6 10 -7 -20 -14 -291 -137 -390 -177 -27 -11
-77 -34 -109 -51 -32 -16 -67 -30 -76 -30 -24 0 -43 -23 -29 -37 6 -6 -6 -10
-38 -12 -26 -1 -58 -9 -72 -18 l-25 -16 24 -11 c17 -8 24 -8 28 2 2 6 8 12 13
12 6 0 8 -4 5 -9 -4 -5 -1 -11 4 -13 14 -4 -280 -154 -300 -153 -8 0 -15 5
-15 10 0 6 6 9 15 7 11 -2 10 1 -4 12 -11 9 -15 20 -10 28 4 7 -1 6 -12 -3
-10 -9 -24 -14 -31 -12 -20 7 -49 -14 -50 -38 -4 -46 -98 -102 -118 -69 -8 13
-52 13 -60 0 -3 -5 -2 -10 3 -10 5 0 22 -12 37 -26 l29 -27 -23 -18 c-28 -23
-56 -25 -47 -4 4 10 -1 15 -14 15 -21 0 -28 30 -7 31 6 0 3 4 -8 8 -14 6 -39
-1 -82 -23 l-63 -30 0 -58 c0 -50 2 -57 18 -52 16 5 16 5 -1 -6 -13 -8 -17
-25 -17 -65 l0 -53 93 52 c50 29 120 69 155 88 45 25 59 37 47 41 -9 4 -22 -1
-32 -13 -21 -24 -35 -26 -27 -5 4 10 1 14 -7 11 -8 -2 -27 -7 -44 -10 -32 -7
26 30 147 94 31 16 73 41 93 55 21 14 46 25 55 25 9 0 33 12 52 28 58 46 401
215 420 207 10 -4 15 -11 12 -16 -3 -5 1 -9 8 -9 17 0 257 129 241 130 -7 0
-61 -18 -119 -40 -59 -22 -109 -39 -111 -37 -8 9 139 66 212 82 64 15 106 34
213 96 73 43 143 81 155 85 22 7 22 6 3 -15 -11 -11 -23 -21 -27 -21 -8 0 -55
-27 -249 -140 -63 -37 -135 -78 -160 -91 -64 -35 -64 -55 0 -63 l52 -7 106 79
c119 89 300 209 529 352 83 52 151 96 149 97 -1 1 -28 -5 -60 -13 -32 -8 -60
-13 -62 -11 -3 2 39 16 91 31 60 16 123 43 168 70 40 23 106 63 147 87 88 52
105 47 -183 51 -152 2 -197 0 -197 -9 0 -7 -5 -13 -10 -13 -6 0 -9 6 -8 13 4
19 -110 22 -147 4 -16 -9 -47 -18 -67 -22 -21 -3 -38 -10 -38 -15 0 -6 -3 -9
-7 -8 -20 4 -229 -72 -425 -156 -21 -9 -38 -12 -38 -7 0 9 256 124 307 138 25
7 23 8 -22 14 -49 6 -49 6 18 7 63 2 96 11 222 61 11 5 -52 6 -140 3 -88 -2
-168 -8 -177 -13 -9 -5 -54 -9 -100 -9 l-83 0 45 21 c239 109 836 320 975 344
22 4 47 11 55 16 31 17 -26 6 -170 -33z m-562 -355 c-15 -2 -42 -2 -60 0 -18
2 -6 4 27 4 33 0 48 -2 33 -4z m285 0 c-7 -2 -19 -2 -25 0 -7 3 -2 5 12 5 14
0 19 -2 13 -5z m-123 -33 c0 -5 -4 -10 -9 -10 -6 0 -13 5 -16 10 -3 6 1 10 9
10 9 0 16 -4 16 -10z m-860 -16 c0 -2 -15 -4 -32 -4 -23 0 -29 3 -19 9 12 8
51 4 51 -5z m520 6 c0 -6 -19 -8 -47 -5 -64 6 -67 15 -5 15 29 0 52 -4 52 -10z
m-1085 -10 c-3 -5 -11 -10 -16 -10 -6 0 -7 5 -4 10 3 6 11 10 16 10 6 0 7 -4
4 -10z m40 -10 c3 -5 1 -10 -4 -10 -6 0 -11 5 -11 10 0 6 2 10 4 10 3 0 8 -4
11 -10z m365 -40 c-8 -5 -22 -9 -30 -9 -10 0 -8 3 5 9 27 12 43 12 25 0z m150
6 c0 -2 -8 -10 -17 -17 -16 -13 -17 -12 -4 4 13 16 21 21 21 13z m-715 -26 c4
-6 -5 -10 -19 -10 -14 0 -29 0 -33 -1 -4 0 -9 4 -11 10 -5 14 55 15 63 1z m30
0 c3 -5 1 -10 -4 -10 -6 0 -11 5 -11 10 0 6 2 10 4 10 3 0 8 -4 11 -10z m455
-4 c0 -4 -197 -68 -371 -120 -86 -26 -140 -34 -109 -17 13 7 145 48 405 125
52 15 75 19 75 12z m155 -31 c-39 -34 -91 -69 -70 -47 16 17 99 82 105 82 3 0
-13 -16 -35 -35z m-628 9 c-3 -3 -12 -4 -19 -1 -8 3 -5 6 6 6 11 1 17 -2 13
-5z m86 -31 c-7 -2 -19 -2 -25 0 -7 3 -2 5 12 5 14 0 19 -2 13 -5z m858 -69
c-52 -25 -96 -42 -99 -40 -7 7 158 86 177 85 9 0 -26 -21 -78 -45z m784 16
c-11 -5 -27 -9 -35 -9 -9 0 -8 4 5 9 11 5 27 9 35 9 9 0 8 -4 -5 -9z m-55 -55
c-30 -19 -61 -35 -69 -35 -19 0 -8 10 47 41 69 39 86 34 22 -6z m-158 12 c-12
-7 -20 -16 -17 -19 3 -3 -6 -8 -20 -10 -35 -7 -31 5 8 25 38 19 62 22 29 4z
m-727 -54 c-40 -16 -209 -110 -212 -118 -2 -6 49 -9 144 -7 82 2 144 0 140 -5
-10 -10 -33 -12 -164 -13 -56 -1 -112 1 -124 5 -15 5 -19 4 -14 -5 4 -7 2 -10
-6 -9 -22 5 -69 -10 -69 -21 0 -6 6 -10 13 -10 8 0 7 -4 -3 -10 -12 -8 -12
-10 5 -10 11 0 27 -5 35 -10 10 -6 -4 -9 -45 -7 -71 2 -87 -17 -18 -21 27 -2
52 -7 58 -13 10 -10 -16 -11 -147 -9 -77 1 -114 -14 -61 -26 15 -3 44 -12 63
-19 36 -13 42 -15 63 -15 6 -1 -5 -10 -26 -21 -21 -11 -48 -19 -60 -19 -12 1
-35 1 -52 0 l-30 -2 30 -11 c29 -10 28 -11 -50 -32 -74 -20 -82 -21 -101 -6
-12 9 -20 19 -17 24 5 9 -10 9 -33 0 -16 -6 -16 -7 2 -14 16 -6 15 -8 -8 -8
-31 -1 -37 -15 -11 -25 26 -10 -5 -27 -37 -20 -18 4 -21 3 -11 -4 10 -7 6 -11
-15 -15 -16 -3 -42 -9 -59 -12 -21 -5 1 13 69 59 54 36 102 66 107 66 5 0 9 6
9 13 0 7 12 18 27 24 48 21 158 94 155 104 -1 5 5 9 13 9 9 0 96 45 194 99
184 103 242 132 251 123 3 -3 1 -7 -5 -9z m-535 3 c0 -2 -7 -7 -16 -10 -8 -3
-12 -2 -9 4 6 10 25 14 25 6z m-80 -36 c-8 -5 -19 -10 -25 -10 -5 0 -3 5 5 10
8 5 20 10 25 10 6 0 3 -5 -5 -10z m0 -70 c0 -5 -7 -10 -15 -10 -8 0 -15 5 -15
10 0 6 7 10 15 10 8 0 15 -4 15 -10z m310 -30 c0 -5 -10 -10 -22 -10 -19 0
-20 2 -8 10 19 13 30 13 30 0z m83 -47 c-7 -2 -21 -2 -30 0 -10 3 -4 5 12 5
17 0 24 -2 18 -5z m22 -73 c4 -6 -5 -10 -20 -10 -15 0 -24 4 -20 10 3 6 12 10
20 10 8 0 17 -4 20 -10z m60 -40 c4 -6 -7 -10 -27 -9 -31 1 -32 1 -8 9 14 4
26 8 27 9 1 1 5 -3 8 -9z m-505 -33 c-14 -14 -28 -18 -50 -15 -17 3 -33 1 -36
-4 -3 -4 -13 -8 -22 -8 -15 0 -15 2 -2 10 8 5 11 10 6 10 -5 0 -4 6 2 13 6 7
34 13 65 13 55 1 55 1 37 -19z m360 -11 c0 -2 -7 -7 -16 -10 -8 -3 -12 -2 -9
4 6 10 25 14 25 6z m-380 -131 c0 -6 -87 -45 -101 -45 -25 0 -3 18 39 32 57
18 62 19 62 13z m-147 -60 c0 -6 -8 -11 -19 -12 -10 -2 -13 0 -6 3 6 3 9 10 6
16 -4 6 -1 9 5 7 7 -3 13 -9 14 -14z m349 -40 c1 -11 -70 -50 -78 -43 -2 3 4
14 13 25 27 30 63 40 65 18z m-347 -25 c-3 -5 -11 -10 -16 -10 -6 0 -7 5 -4
10 3 6 11 10 16 10 6 0 7 -4 4 -10z"/>
<path d="M290 2461 c0 -5 24 -9 53 -9 39 0 46 2 27 8 -35 11 -80 12 -80 1z"/>
<path d="M0 3125 c0 -17 6 -25 18 -26 14 0 14 -2 -3 -9 -19 -8 -19 -9 3 -9 12
-1 22 3 22 9 0 5 15 10 33 9 48 -1 190 22 202 33 6 6 -29 8 -98 6 -59 -2 -107
0 -107 5 0 4 -16 7 -35 7 -31 0 -35 -3 -35 -25z"/>
<path d="M2224 3063 c-69 -41 -123 -77 -121 -80 3 -3 66 9 139 27 154 37 431
90 437 84 6 -6 -15 -11 -164 -39 -77 -14 -216 -44 -310 -67 -163 -39 -175 -44
-285 -109 -222 -133 -441 -277 -607 -401 -86 -63 -109 -88 -83 -88 6 0 10 -7
10 -15 0 -8 7 -15 15 -15 8 0 15 4 15 9 0 6 8 9 18 9 20 -1 106 16 216 43 43
11 80 18 82 16 2 -2 -53 -18 -123 -36 -71 -17 -148 -38 -173 -46 -25 -7 -68
-18 -95 -24 -77 -15 -105 -28 -99 -45 3 -8 17 -17 30 -20 16 -4 22 -11 17 -19
-4 -7 5 -4 20 6 32 20 58 13 30 -9 -10 -7 -13 -14 -8 -15 24 -5 54 -7 112 -8
40 -1 67 -6 77 -16 8 -8 22 -15 30 -15 9 0 16 -6 16 -14 0 -10 16 -17 45 -22
25 -3 45 -11 45 -16 0 -5 5 -6 12 -2 7 4 8 3 4 -5 -5 -7 -13 -8 -19 -4 -7 5
-50 8 -97 7 -89 -2 -101 -10 -86 -51 5 -13 9 -14 18 -5 14 14 32 16 24 3 -3
-5 1 -12 10 -15 25 -10 44 -7 44 7 0 10 26 12 115 10 72 -2 115 1 115 7 0 6
-4 10 -10 10 -5 0 -10 5 -10 10 0 6 11 10 24 10 33 0 76 -17 76 -30 0 -6 -4
-8 -10 -5 -5 3 -10 2 -10 -3 0 -5 15 -12 33 -16 45 -9 17 -26 -45 -26 -35 0
-46 -4 -44 -15 3 -23 11 -26 68 -33 58 -6 60 -6 166 -1 41 3 76 1 78 -3 3 -5
21 -8 40 -8 19 0 46 -8 60 -17 23 -15 81 -30 139 -36 11 -1 23 -6 27 -12 4 -5
34 -8 67 -7 34 2 69 -1 82 -9 l23 -12 -22 -8 c-31 -12 -27 -29 7 -29 16 0 34
-7 41 -15 7 -9 19 -14 26 -11 8 3 11 0 7 -11 -4 -11 -1 -14 13 -11 10 2 19 11
19 21 0 10 18 33 40 52 34 29 38 36 25 46 -13 9 -13 10 0 6 8 -2 24 0 35 6 18
9 19 9 6 -6 -19 -24 -4 -21 27 4 22 18 24 20 7 17 -11 -3 -69 12 -130 33 -60
21 -126 40 -145 44 -60 11 -159 48 -164 61 -4 10 1 11 20 4 14 -6 38 -10 52
-10 15 0 37 -6 48 -14 12 -8 32 -17 45 -19 13 -2 37 -9 52 -16 16 -6 33 -9 38
-5 16 9 99 11 99 2 0 -5 -7 -11 -16 -15 -12 -4 -13 -8 -3 -13 20 -13 37 -1 31
22 -4 17 -2 19 19 13 31 -9 48 -25 28 -25 -9 0 -16 -7 -16 -15 0 -8 4 -15 9
-15 4 0 8 5 8 11 0 8 4 9 13 0 11 -8 16 -5 25 14 6 14 16 26 22 26 5 1 15 2
20 3 6 0 41 30 78 66 89 87 146 132 163 128 7 -2 13 5 14 14 0 18 85 96 85 79
0 -8 11 -6 30 4 37 19 46 19 30 0 -18 -22 8 -20 32 2 16 14 21 15 45 2 l27
-14 -28 -3 c-18 -2 -26 -8 -22 -17 2 -7 -1 -19 -9 -25 -18 -15 -105 7 -105 26
0 20 -17 17 -25 -3 -7 -21 -4 -29 10 -25 5 1 -1 -7 -15 -19 -14 -11 -18 -17
-10 -13 13 7 13 5 1 -9 -7 -9 -12 -17 -10 -18 2 0 19 -2 38 -5 37 -5 55 -14
27 -14 -9 0 -14 -4 -11 -10 4 -7 -3 -7 -20 0 -38 15 -75 13 -69 -3 3 -8 -7
-19 -23 -28 -15 -8 -34 -20 -41 -27 -7 -6 -30 -12 -51 -12 -29 0 -44 -7 -67
-31 l-29 -32 25 5 c14 3 34 9 45 13 20 8 20 8 1 -14 l-20 -22 42 7 c28 4 42 3
42 -5 0 -6 -6 -11 -12 -12 -7 0 -4 -4 7 -9 19 -8 19 -9 -2 -9 -22 -1 -34 -21
-12 -21 20 0 3 -24 -22 -31 -21 -6 -21 -7 9 -8 23 -1 32 3 32 15 0 11 6 14 23
8 12 -4 34 -7 50 -7 32 -1 37 -16 5 -18 -19 -1 -17 -3 7 -9 28 -7 27 -8 -15
-10 -35 -1 -41 -3 -25 -10 27 -11 85 -12 85 -1 0 5 10 11 23 14 21 6 21 5 3
-8 -11 -8 -17 -17 -14 -20 8 -8 59 6 53 14 -2 4 2 8 10 8 8 0 15 -9 15 -19 0
-14 8 -18 41 -18 22 0 38 -4 35 -9 -6 -10 37 -31 63 -31 10 0 32 -7 50 -16 18
-9 43 -14 56 -11 14 2 22 0 19 -4 -3 -5 2 -9 10 -9 8 0 17 4 21 10 3 5 12 7
20 4 8 -4 12 -10 9 -15 -3 -5 0 -9 5 -9 6 0 11 7 11 15 0 9 9 15 23 15 21 -1
22 -1 3 -15 -24 -18 -16 -19 35 -3 34 10 42 9 60 -8 11 -10 19 -14 17 -9 -2 6
2 10 7 10 6 0 9 -4 7 -9 -2 -5 5 -6 14 -2 23 9 134 -4 134 -15 0 -5 -14 -9
-32 -9 -35 0 -32 -11 4 -15 40 -5 72 -13 102 -24 21 -8 32 -8 42 0 7 6 26 8
41 5 16 -4 72 -8 125 -10 62 -3 109 -10 129 -20 18 -9 40 -16 50 -16 10 0 24
-7 32 -15 8 -8 17 -12 19 -10 2 3 18 1 34 -4 16 -4 38 -5 49 -1 12 4 25 1 34
-7 10 -10 27 -13 55 -9 23 3 93 11 156 16 63 6 133 13 155 15 22 2 11 -2 -25
-10 -36 -7 -102 -17 -147 -21 -46 -4 -83 -10 -83 -14 0 -7 46 -21 85 -26 11
-1 40 -9 64 -18 24 -9 62 -16 85 -16 23 0 51 -7 63 -15 12 -9 26 -14 30 -13
11 3 152 -12 181 -19 l22 -5 0 805 0 805 -757 2 c-417 0 -866 2 -998 3 -132 1
-269 -1 -305 -5 -40 -5 -55 -4 -40 1 16 6 -29 9 -130 10 -85 1 -215 3 -288 5
l-132 4 -126 -75z m621 37 c-16 -4 -41 -8 -55 -8 -22 0 -22 1 5 8 17 4 41 8
55 8 22 0 22 -1 -5 -8z m-92 -17 c-7 -2 -19 -2 -25 0 -7 3 -2 5 12 5 14 0 19
-2 13 -5z m1084 -400 c-4 -3 -33 -7 -64 -9 -122 -6 -268 -42 -285 -70 -4 -6
-23 -15 -41 -18 -38 -7 -133 -76 -118 -85 21 -14 -9 -33 -55 -36 -50 -4 -77
-24 -67 -51 3 -8 -5 -16 -21 -20 -21 -5 -24 -9 -15 -20 13 -16 8 -17 -54 -14
-25 1 -47 -5 -60 -16 -12 -10 3 7 33 37 30 30 71 65 91 77 19 12 43 30 53 41
25 28 103 64 121 57 8 -3 15 -1 15 5 0 5 14 25 31 44 24 26 38 33 54 29 11 -3
46 5 76 17 51 22 134 34 258 37 30 1 51 -1 48 -5z m-2421 -373 c13 0 24 -4 24
-8 0 -4 -38 -8 -85 -9 -69 0 -85 3 -85 15 0 12 11 14 61 8 34 -3 73 -6 85 -6z
m175 -51 c30 -6 65 -13 79 -14 14 -2 52 -8 85 -15 33 -6 94 -18 135 -27 41 -8
99 -18 129 -23 29 -5 67 -14 82 -21 16 -6 45 -9 64 -6 19 3 37 2 40 -2 2 -5
15 -6 29 -4 13 3 32 0 43 -6 12 -7 13 -10 4 -11 -11 0 -11 -3 0 -17 12 -15 12
-16 -6 -8 -52 21 -123 34 -185 34 -37 -1 -76 4 -86 10 -11 5 -49 13 -87 16
-37 4 -65 10 -62 15 5 8 -84 23 -215 36 -36 4 -68 11 -71 16 -3 5 -24 16 -45
23 -33 12 -35 14 -13 15 15 0 51 -5 80 -11z m-328 -13 c4 -10 1 -13 -9 -9 -15
6 -19 23 -5 23 5 0 11 -7 14 -14z m62 4 c-3 -5 -12 -10 -18 -10 -7 0 -6 4 3
10 19 12 23 12 15 0z m1025 -130 c21 -7 22 -8 5 -10 l-20 -1 20 -9 c16 -7 17
-9 3 -9 -9 -1 -20 4 -23 10 -4 6 -13 8 -19 6 -7 -3 -13 1 -13 9 0 15 9 16 47
4z m70 -56 c0 -2 -9 -4 -21 -4 -11 0 -18 4 -14 10 5 8 35 3 35 -6z m17 -20
c-3 -3 -12 -4 -19 -1 -8 3 -5 6 6 6 11 1 17 -2 13 -5z m710 -140 c-3 -3 -12
-4 -19 -1 -8 3 -5 6 6 6 11 1 17 -2 13 -5z m110 -30 c-3 -3 -12 -4 -19 -1 -8
3 -5 6 6 6 11 1 17 -2 13 -5z m108 -24 c3 -5 -1 -10 -10 -10 -9 0 -13 5 -10
10 3 6 8 10 10 10 2 0 7 -4 10 -10z m1192 -97 c-3 -10 -5 -4 -5 12 0 17 2 24
5 18 2 -7 2 -21 0 -30z m260 -79 c-3 -3 -12 -4 -19 -1 -8 3 -5 6 6 6 11 1 17
-2 13 -5z"/>
<path d="M1068 3083 c7 -3 16 -2 19 1 4 3 -2 6 -13 5 -11 0 -14 -3 -6 -6z"/>
<path d="M324 2628 c-43 -32 -53 -44 -19 -23 53 32 70 45 59 45 -6 0 -24 -10
-40 -22z"/>
<path d="M935 2430 c6 -10 3 -12 -13 -8 -12 4 -20 2 -16 -3 7 -12 44 -12 44 0
0 6 -5 13 -12 17 -7 5 -8 3 -3 -6z"/>
<path d="M869 2409 c-8 -5 -9 -9 -4 -9 6 0 2 -7 -8 -14 -30 -23 8 -29 49 -8
l34 18 -29 11 c-17 6 -35 7 -42 2z"/>
<path d="M995 2392 c-27 -10 -65 -35 -65 -44 0 -13 64 -42 90 -40 47 4 55 8
93 36 30 23 35 31 24 37 -21 12 -118 19 -142 11z"/>
<path d="M575 2360 c28 -12 57 -12 50 0 -3 6 -21 10 -38 9 -27 0 -29 -2 -12
-9z"/>
<path d="M1151 2350 c-27 -23 -20 -25 31 -7 50 18 58 27 22 27 -16 -1 -40 -10
-53 -20z"/>
<path d="M525 2350 c3 -5 8 -10 11 -10 2 0 4 5 4 10 0 6 -5 10 -11 10 -5 0 -7
-4 -4 -10z"/>
<path d="M730 2306 c0 -2 7 -6 15 -10 8 -3 15 -1 15 4 0 6 -7 10 -15 10 -8 0
-15 -2 -15 -4z"/>
<path d="M695 2290 c3 -5 14 -10 23 -10 15 0 15 2 2 10 -20 13 -33 13 -25 0z"/>
<path d="M810 2290 c-8 -5 -11 -12 -8 -16 10 -9 38 3 38 16 0 12 -10 13 -30 0z"/>
<path d="M1009 2263 c-13 -16 -12 -17 4 -4 9 7 17 15 17 17 0 8 -8 3 -21 -13z"/>
<path d="M1112 2240 c0 -14 2 -19 5 -12 2 6 2 18 0 25 -3 6 -5 1 -5 -13z"/>
<path d="M575 2230 c-3 -5 -1 -10 4 -10 6 0 11 5 11 10 0 6 -2 10 -4 10 -3 0
-8 -4 -11 -10z"/>
<path d="M507 2203 c-15 -14 -6 -23 22 -23 34 0 49 15 25 24 -21 8 -39 8 -47
-1z"/>
<path d="M808 2193 c7 -3 16 -2 19 1 4 3 -2 6 -13 5 -11 0 -14 -3 -6 -6z"/>
<path d="M682 2173 c-6 -2 -10 -9 -6 -14 3 -5 -4 -9 -16 -9 -12 0 -18 5 -15
10 3 6 -2 10 -12 10 -30 0 -63 -12 -63 -22 0 -6 6 -8 14 -5 8 3 17 0 20 -8 3
-8 18 -13 33 -13 16 1 38 -4 48 -9 11 -6 32 -10 48 -9 16 1 27 -3 27 -11 0 -7
8 -13 18 -13 13 0 10 -6 -13 -25 -20 -16 -38 -23 -52 -20 -24 6 -34 -20 -11
-27 9 -3 9 -6 0 -12 -7 -4 -12 -2 -12 4 0 6 -5 8 -12 4 -8 -5 -9 -2 -5 9 3 10
2 17 -4 17 -6 0 -7 5 -3 12 4 7 3 8 -4 4 -7 -4 -12 -1 -12 8 0 39 -95 78 -115
46 -3 -5 -12 -7 -20 -4 -8 4 -12 10 -9 15 3 5 0 9 -5 9 -6 0 -11 -4 -11 -10 0
-5 -3 -9 -7 -9 -22 4 -36 -3 -58 -27 -14 -15 -25 -22 -25 -16 0 9 -7 8 -25 0
-16 -7 -24 -17 -20 -26 4 -10 0 -12 -10 -8 -9 3 -39 -6 -68 -20 l-51 -26 30
-13 c35 -16 26 -19 -12 -5 -33 13 -96 -6 -72 -21 9 -6 5 -9 -13 -9 -14 0 -55
-15 -90 -33 l-64 -33 -3 -73 -3 -72 53 27 c29 15 84 45 121 67 38 21 71 36 74
34 3 -3 -10 -13 -29 -22 -73 -38 -218 -128 -218 -136 0 -11 -6 -12 60 6 30 8
64 14 75 14 11 -1 -2 -7 -30 -14 -61 -15 -105 -32 -105 -40 0 -4 21 -31 47
-61 40 -46 49 -52 55 -37 6 16 7 15 7 -4 1 -35 -20 -39 -44 -8 -13 15 -25 23
-27 19 -3 -5 -3 -4 -2 3 2 7 -6 22 -16 35 -19 23 -19 23 -20 -79 0 -57 1 -103
3 -103 1 0 34 30 72 66 39 36 161 134 272 217 111 82 200 154 197 158 -3 5 1
6 9 3 12 -4 143 108 301 260 41 38 41 38 3 7 -22 -18 -49 -31 -65 -31 -23 1
-25 2 -11 13 23 18 12 35 -27 43 -23 4 -40 2 -51 -7 -15 -12 -16 -11 -11 9 4
12 5 22 5 21 -1 0 -8 -3 -15 -6z m91 -40 c-7 -2 -21 -2 -30 0 -10 3 -4 5 12 5
17 0 24 -2 18 -5z m-153 -63 c0 -5 -4 -10 -10 -10 -5 0 -10 5 -10 10 0 6 5 10
10 10 6 0 10 -4 10 -10z m-95 -40 c3 -4 -3 -11 -12 -14 -10 -4 -14 -4 -10 0 4
4 -1 13 -11 20 -15 12 -15 12 6 7 12 -3 24 -9 27 -13z m95 10 c0 -6 6 -9 12
-7 7 1 14 -7 16 -19 2 -14 -5 -24 -23 -32 -32 -15 -38 -15 -30 -2 3 5 -1 22
-9 38 -14 27 -13 28 10 30 13 1 24 -3 24 -8z m-66 -35 c-4 -8 -1 -15 6 -15 7
0 10 -7 6 -16 -3 -8 -2 -24 4 -33 13 -25 0 -35 -16 -13 -12 16 -13 15 -14 -7
l0 -24 -19 21 c-10 12 -21 18 -25 15 -4 -4 -5 -1 -2 7 3 8 2 21 -3 29 -7 10
-13 11 -32 1 l-24 -13 20 20 c11 11 21 19 23 18 1 -1 19 4 40 11 20 7 38 13
39 14 1 0 0 -7 -3 -15z m-337 -71 c-3 -3 -12 -4 -19 -1 -8 3 -5 6 6 6 11 1 17
-2 13 -5z m178 -4 c-3 -5 -12 -10 -18 -10 -7 0 -6 4 3 10 19 12 23 12 15 0z
m-65 -35 c0 -2 -10 -9 -22 -15 -22 -11 -22 -10 -4 4 21 17 26 19 26 11z m-93
-171 c-3 -3 -12 -4 -19 -1 -8 3 -5 6 6 6 11 1 17 -2 13 -5z m-44 -11 c-7 -2
-19 -2 -25 0 -7 3 -2 5 12 5 14 0 19 -2 13 -5z m-76 -115 c-3 -8 -6 -5 -6 6
-1 11 2 17 5 13 3 -3 4 -12 1 -19z"/>
<path d="M1130 2129 c-14 -25 -14 -25 33 -32 28 -4 37 -2 37 9 0 8 10 14 23
14 15 1 10 5 -18 15 -53 19 -62 19 -75 -6z m27 -15 c-3 -3 -12 -4 -19 -1 -8 3
-5 6 6 6 11 1 17 -2 13 -5z"/>
<path d="M339 2073 c-13 -15 -12 -15 11 -3 34 17 36 20 18 20 -9 0 -22 -7 -29
-17z"/>
<path d="M825 2060 c-3 -5 1 -10 9 -10 9 0 16 5 16 10 0 6 -4 10 -9 10 -6 0
-13 -4 -16 -10z"/>
<path d="M898 2052 c-19 -4 -24 -17 -9 -26 5 -3 14 1 21 9 15 18 12 23 -12 17z"/>
<path d="M1031 2031 c-1 -10 -13 -12 -50 -9 -45 4 -48 3 -38 -13 6 -9 17 -15
24 -12 7 3 13 0 13 -6 0 -6 9 -11 20 -11 14 0 20 -7 20 -22 0 -21 1 -21 13 -3
10 12 16 14 21 7 4 -7 2 -12 -3 -12 -6 0 -11 -4 -11 -10 0 -5 11 -10 24 -10
13 0 34 -8 47 -19 13 -10 32 -17 41 -16 23 4 94 -21 91 -32 -1 -4 6 -7 17 -5
10 2 21 -2 25 -8 3 -5 17 -10 30 -10 13 0 25 -5 27 -10 2 -6 13 -12 25 -14 11
-3 40 -16 63 -31 33 -21 44 -24 51 -14 4 7 12 10 16 5 4 -4 0 -13 -10 -20 -9
-7 -17 -16 -17 -20 0 -7 42 15 51 28 4 5 12 5 19 1 9 -6 9 -9 0 -15 -20 -12
-3 -43 20 -37 11 3 20 2 20 -3 0 -10 38 -23 70 -24 15 -1 25 -7 25 -16 0 -19
25 -30 44 -20 8 4 15 20 17 35 2 21 0 25 -9 16 -14 -14 -57 -15 -57 -1 0 6 8
10 18 10 13 1 11 4 -8 15 -14 8 -31 14 -39 15 -8 0 -20 8 -28 18 -14 16 -14
16 -9 0 7 -22 -12 -24 -21 -2 -5 13 -7 13 -14 2 -7 -10 -9 -9 -9 5 0 11 -8 17
-23 17 -26 0 -54 35 -34 44 7 3 -2 3 -19 1 -24 -4 -33 -1 -36 13 -4 14 -14 18
-47 16 -22 -1 -41 2 -41 6 0 5 -9 6 -21 3 -15 -4 -22 0 -26 16 -3 14 -13 21
-29 21 -13 0 -24 4 -24 9 0 5 -7 12 -16 15 -8 3 -12 2 -9 -4 4 -6 -11 -9 -37
-8 -36 1 -38 2 -11 5 26 3 30 7 21 17 -7 7 -21 11 -31 8 -10 -2 -28 5 -40 16
-12 11 -40 24 -62 28 -50 8 -61 14 -45 24 7 4 10 14 7 21 -5 12 -6 12 -6 0z"/>
<path d="M2770 2000 c8 -5 26 -9 40 -9 l25 1 -25 8 c-14 4 -32 8 -40 9 -13 1
-13 0 0 -9z"/>
<path d="M790 1970 c12 -7 8 -10 -15 -10 -37 -1 -170 -83 -169 -103 1 -9 -4
-13 -10 -11 -17 7 -319 -303 -310 -318 4 -6 3 -8 -3 -5 -6 4 -16 0 -23 -8 -15
-18 0 -21 28 -6 9 5 42 11 72 14 46 5 50 4 27 -5 -21 -7 -27 -15 -24 -28 3
-11 -2 -21 -10 -24 -23 -9 -26 -7 -14 8 7 9 8 17 3 20 -6 3 -13 -2 -16 -11 -5
-12 -9 -14 -14 -6 -9 14 -91 -11 -108 -33 -6 -7 -14 -11 -17 -7 -4 3 -7 1 -7
-5 0 -6 9 -16 19 -22 23 -12 34 -13 28 -2 -3 4 7 8 21 8 32 2 93 24 115 42 8
7 19 12 23 11 11 -3 40 7 77 26 15 8 25 10 22 5 -8 -13 -4 -13 47 4 24 8 124
40 222 70 177 55 239 67 134 28 -29 -11 -91 -36 -136 -56 -92 -39 -116 -46
-62 -16 49 27 39 25 -85 -16 -131 -43 -145 -50 -145 -72 0 -11 -19 -27 -47
-42 -27 -14 -51 -29 -55 -35 -4 -5 -8 -7 -8 -3 0 4 -12 3 -26 -3 -38 -14 -39
-6 -4 34 l30 35 -40 -10 c-22 -6 -40 -14 -40 -19 0 -5 -6 -6 -12 -4 -18 7 -42
-11 -33 -24 5 -9 11 -9 22 1 15 12 15 11 2 -9 -17 -28 -25 -29 -39 -3 -13 23
-48 27 -56 5 -4 -8 -10 -13 -14 -10 -5 3 -11 1 -15 -5 -4 -6 -12 -7 -18 -3 -8
5 -8 2 1 -9 11 -13 6 -16 -35 -22 -25 -3 -48 -4 -50 -2 -2 2 88 97 201 212
113 115 204 210 202 211 -6 7 -256 -190 -261 -207 -4 -11 -10 -18 -15 -15 -5
3 -7 -8 -5 -24 3 -23 -4 -36 -36 -65 -21 -20 -39 -32 -39 -27 0 18 -43 -5 -46
-25 -2 -10 -8 -20 -13 -22 -6 -2 -11 -16 -11 -32 0 -24 3 -27 22 -22 l22 5
-22 -28 c-30 -38 -28 -44 18 -38 45 6 51 -5 18 -33 -14 -12 -18 -13 -10 -3 15
20 8 27 -23 21 -24 -4 -25 -8 -25 -74 0 -66 1 -70 18 -57 9 7 18 14 20 15 2 1
-4 16 -12 33 -9 16 -16 38 -15 48 0 10 5 3 10 -14 5 -18 14 -33 19 -33 6 0 9
-3 9 -7 -4 -23 4 -30 31 -31 16 0 30 3 30 8 0 5 6 7 14 4 23 -9 267 55 334 87
35 17 65 29 68 26 3 -2 -9 -10 -26 -17 -16 -7 -30 -16 -30 -20 0 -5 -23 -16
-50 -25 -30 -10 -48 -21 -44 -27 4 -7 2 -8 -4 -4 -20 12 -50 -13 -62 -51 -7
-21 -16 -42 -21 -48 -13 -13 -11 -2 6 38 20 49 20 50 -15 32 -17 -9 -30 -20
-30 -25 0 -5 -6 -7 -14 -4 -8 3 -31 -4 -53 -14 -25 -14 -33 -22 -23 -25 60
-19 102 -27 110 -22 6 3 10 2 10 -4 0 -5 19 -14 43 -19 23 -6 51 -13 62 -17
15 -4 30 5 60 36 22 23 32 39 23 36 -24 -8 -23 0 1 13 29 15 22 -9 -17 -58
l-33 -41 38 -10 c21 -6 46 -11 57 -11 35 0 101 23 124 44 19 17 22 18 16 3 -5
-14 -2 -16 12 -11 11 4 24 10 29 14 6 4 17 8 25 8 39 2 170 35 405 102 55 15
124 34 154 41 36 9 56 20 61 34 7 15 9 16 9 4 1 -15 10 -14 84 6 45 12 114 31
152 43 39 12 96 29 127 37 54 15 60 20 122 104 66 88 80 121 51 121 -8 0 -15
5 -15 11 0 6 -7 9 -14 6 -10 -4 -13 -1 -10 8 4 9 -6 17 -32 24 -20 6 -41 8
-46 5 -4 -3 -20 3 -36 14 -27 19 -56 32 -68 31 -4 0 -10 5 -14 12 -4 6 -31 14
-59 17 -34 3 -51 9 -51 18 0 8 -4 14 -10 14 -5 0 -10 -4 -10 -10 0 -5 -15 -9
-32 -9 -31 2 -32 2 -5 6 l28 4 -23 18 c-35 27 -80 41 -110 36 -16 -3 -32 0
-40 8 -7 8 -21 12 -31 9 -10 -2 -26 3 -36 12 -13 12 -21 14 -26 7 -4 -8 -11
-6 -21 4 -11 11 -28 13 -59 10 -32 -4 -44 -2 -49 10 -3 8 -15 15 -28 15 -17 0
-19 3 -10 12 17 17 15 33 -2 19 -8 -7 -24 -14 -36 -16 -12 -2 -30 -7 -41 -10
-14 -5 -17 -3 -13 9 3 9 14 16 23 17 9 1 5 4 -9 8 -14 4 -28 4 -31 -1 -3 -5
-29 -9 -57 -9 -30 -1 -56 -7 -63 -15 -6 -8 -16 -14 -22 -14 -5 0 2 9 17 21 33
26 33 37 1 33 -28 -3 -55 19 -55 43 0 11 -8 14 -30 11 -16 -3 -30 -1 -30 4 0
4 7 8 15 8 8 0 15 5 15 10 0 6 8 10 18 10 14 0 15 -2 2 -10 -12 -8 -10 -10 8
-10 13 0 30 6 38 14 18 18 18 26 0 26 -8 0 -12 9 -11 25 3 20 -1 25 -18 25
-18 0 -19 -2 -7 -10z m-5 -30 c-3 -5 -11 -10 -16 -10 -6 0 -7 5 -4 10 3 6 11
10 16 10 6 0 7 -4 4 -10z m105 -180 c8 -5 11 -10 5 -10 -5 0 -17 5 -25 10 -8
5 -10 10 -5 10 6 0 17 -5 25 -10z m75 -20 l20 -9 -20 0 c-11 0 -29 4 -40 9
l-20 9 20 0 c11 0 29 -4 40 -9z m90 -24 c28 -8 41 -14 30 -14 -21 0 -107 25
-90 27 6 0 33 -6 60 -13z m138 -33 c-7 -2 -19 -2 -25 0 -7 3 -2 5 12 5 14 0
19 -2 13 -5z m64 -9 c-3 -3 -12 -4 -19 -1 -8 3 -5 6 6 6 11 1 17 -2 13 -5z
m83 -14 c20 -6 21 -8 5 -8 -11 0 -33 4 -50 8 -27 7 -27 8 -5 8 14 0 36 -4 50
-8z m77 -16 c-3 -3 -12 -4 -19 -1 -8 3 -5 6 6 6 11 1 17 -2 13 -5z m-817 -58
c0 -7 -133 -67 -137 -62 -3 2 5 7 16 11 12 3 21 12 21 20 0 7 7 16 16 19 8 3
12 2 9 -4 -8 -12 8 -13 21 -1 5 5 18 11 29 14 11 3 21 5 23 6 1 0 2 -1 2 -3z
m-226 -31 c-4 -8 -11 -15 -16 -15 -6 0 -5 6 2 15 7 8 14 15 16 15 2 0 1 -7 -2
-15z m387 -47 c-4 -13 -6 -29 -4 -35 3 -7 0 -13 -5 -13 -14 0 -21 47 -9 59 18
18 27 12 18 -11z m-311 8 c0 -2 -7 -7 -16 -10 -8 -3 -12 -2 -9 4 6 10 25 14
25 6z m410 -8 c0 -2 -7 -21 -15 -43 -12 -35 -14 -36 -15 -13 0 32 9 58 21 58
5 0 9 -1 9 -2z m-460 -18 c-8 -5 -19 -10 -25 -10 -5 0 -3 5 5 10 8 5 20 10 25
10 6 0 3 -5 -5 -10z m188 -14 c-7 -8 -15 -14 -18 -13 -13 3 -80 -26 -80 -34 0
-6 -4 -8 -10 -4 -5 3 0 15 11 26 11 11 24 17 29 14 5 -3 22 1 37 9 35 19 47
20 31 2z m232 -16 c0 -5 -2 -10 -4 -10 -3 0 -8 5 -11 10 -3 6 -1 10 4 10 6 0
11 -4 11 -10z m150 5 c0 -2 -10 -9 -22 -15 -22 -11 -22 -10 -4 4 21 17 26 19
26 11z m-296 -32 c-6 -20 -44 -40 -44 -22 0 9 42 51 46 46 2 -2 1 -12 -2 -24z
m-379 7 c-3 -5 -14 -10 -23 -10 -15 0 -15 2 -2 10 20 13 33 13 25 0z m445 -20
c0 -3 -11 -7 -25 -8 -24 -2 -24 -1 -8 18 13 14 19 16 25 7 4 -6 8 -14 8 -17z
m17 8 c-3 -8 -6 -5 -6 6 -1 11 2 17 5 13 3 -3 4 -12 1 -19z m146 -26 c-5 -10
-8 -11 -13 -1 -6 9 -15 5 -32 -13 -14 -13 -29 -23 -34 -21 -5 2 -17 -10 -27
-26 -10 -17 -27 -33 -38 -36 -15 -5 -18 -10 -11 -17 8 -8 16 -6 27 6 23 22 27
20 13 -6 -7 -13 -14 -24 -14 -26 -1 -1 -12 2 -26 7 -21 8 -24 15 -21 43 4 31
3 32 -11 14 -12 -15 -16 -16 -16 -5 0 9 -8 5 -21 -11 -19 -24 -20 -24 -9 -2 6
13 18 26 26 29 8 3 14 15 15 27 0 11 3 15 6 9 7 -19 23 -16 23 5 0 11 3 13 8
6 5 -9 24 -5 67 11 67 26 95 28 88 7z m107 2 c0 -8 -4 -12 -10 -9 -5 3 -10 0
-10 -7 0 -10 -2 -11 -8 0 -9 13 -42 7 -42 -8 0 -4 -12 -10 -27 -13 -26 -5 -27
-4 -8 10 24 18 76 42 93 43 6 0 12 -7 12 -16z m725 -22 c-16 -15 -23 -20 -17
-11 7 9 8 20 4 24 -4 5 -1 5 6 1 7 -4 15 -1 18 9 4 9 9 13 12 10 3 -3 -7 -18
-23 -33z m-631 13 c-5 -11 1 -15 20 -15 28 0 29 -1 20 -24 -7 -19 -34 -21 -35
-3 -1 6 -4 1 -9 -13 l-7 -25 -8 28 c-4 15 -11 27 -17 27 -5 0 -6 5 -3 10 4 6
10 8 15 5 4 -3 10 2 14 10 3 8 8 15 10 15 3 0 3 -7 0 -15z m528 -17 c-8 -8 -9
-4 -5 13 4 13 8 18 11 10 2 -7 -1 -18 -6 -23z m-452 18 c0 -3 -4 -8 -10 -11
-5 -3 -10 -1 -10 4 0 6 5 11 10 11 6 0 10 -2 10 -4z m90 -26 c0 -5 -5 -10 -11
-10 -5 0 -7 5 -4 10 3 6 8 10 11 10 2 0 4 -4 4 -10z m-390 -10 c0 -5 -5 -10
-11 -10 -5 0 -7 5 -4 10 3 6 8 10 11 10 2 0 4 -4 4 -10z m874 -15 c-4 -8 -10
-12 -15 -9 -11 6 -2 24 11 24 5 0 7 -7 4 -15z m-1084 -4 c-8 -5 -35 -11 -60
-14 l-45 -6 50 14 c60 16 75 17 55 6z m317 3 c-3 -3 -12 -4 -19 -1 -8 3 -5 6
6 6 11 1 17 -2 13 -5z m46 -7 c8 5 8 2 0 -9 -7 -8 -9 -19 -5 -23 4 -5 1 -4 -7
0 -11 6 -13 4 -8 -9 4 -10 3 -15 -3 -11 -5 3 -8 16 -6 28 3 12 5 27 6 32 1 6
4 4 7 -3 2 -6 10 -9 16 -5z m-653 -19 c-12 -13 -16 -24 -11 -26 6 -2 49 4 97
13 47 9 88 14 90 12 4 -3 -37 -13 -133 -32 -18 -4 -33 -11 -33 -16 0 -6 -5 -7
-10 -4 -6 4 -18 1 -27 -7 -14 -11 -16 -11 -8 2 8 13 7 13 -8 1 -9 -7 -17 -10
-17 -6 0 5 -3 6 -6 3 -3 -4 2 -21 11 -39 13 -24 19 -29 26 -18 10 16 12 8 3
-16 -6 -14 -8 -13 -21 5 -13 18 -17 19 -31 8 -15 -12 -16 -11 -4 4 8 9 11 22
7 28 -5 8 -12 4 -22 -9 -8 -12 -20 -21 -26 -21 -7 0 -6 4 3 10 8 5 15 18 16
29 1 15 -4 18 -20 15 -12 -2 -47 -7 -78 -11 -59 -6 -73 2 -43 27 9 8 15 8 15
2 0 -6 -6 -13 -12 -16 -13 -6 55 1 105 10 27 6 28 6 12 31 -9 14 -14 27 -11
30 6 7 30 -17 38 -38 10 -25 55 -12 79 22 11 16 25 29 30 29 5 0 0 -10 -11
-22z m551 -1 c-10 -9 -11 -8 -5 6 3 10 9 15 12 12 3 -3 0 -11 -7 -18z m239 19
c0 -3 -4 -8 -10 -11 -5 -3 -10 -1 -10 4 0 6 5 11 10 11 6 0 10 -2 10 -4z m30
1 c0 -2 -10 -12 -22 -23 l-23 -19 19 23 c18 21 26 27 26 19z m260 -1 c0 -2 -8
-10 -17 -17 -16 -13 -17 -12 -4 4 13 16 21 21 21 13z m60 -5 c0 -5 -7 -12 -16
-15 -14 -5 -15 -4 -4 9 14 17 20 19 20 6z m42 -31 c-9 -11 -17 -20 -18 -20 -6
0 3 36 11 42 18 13 24 -3 7 -22z m34 -16 c-8 -21 -15 -31 -15 -22 -1 18 20 70
26 65 2 -2 -3 -21 -11 -43z m-119 22 c0 -8 -6 -12 -15 -9 -11 5 -11 7 0 14 7
5 13 9 14 9 0 0 1 -6 1 -14z m-644 -11 c-3 -9 -8 -14 -10 -11 -3 3 -2 9 2 15
9 16 15 13 8 -4z m-745 -20 c-3 -3 -9 2 -12 12 -6 14 -5 15 5 6 7 -7 10 -15 7
-18z m557 16 c3 -5 -9 -17 -26 -25 -41 -20 -42 -20 -29 4 6 11 16 17 25 14 8
-4 15 -1 15 5 0 13 7 14 15 2z m1060 -1 c3 -5 -1 -10 -10 -10 -9 0 -13 5 -10
10 3 6 8 10 10 10 2 0 7 -4 10 -10z m-1008 -25 c0 -8 -4 -12 -9 -9 -5 3 -6 10
-3 15 9 13 12 11 12 -6z m343 -6 c0 -11 -4 -18 -10 -14 -5 3 -7 12 -3 20 7 21
13 19 13 -6z m470 11 c0 -5 -2 -10 -4 -10 -3 0 -8 5 -11 10 -3 6 -1 10 4 10 6
0 11 -4 11 -10z m-780 -20 c0 -5 -5 -10 -11 -10 -5 0 -7 5 -4 10 3 6 8 10 11
10 2 0 4 -4 4 -10z m154 -15 c-4 -8 -10 -15 -15 -15 -4 0 -6 7 -3 15 4 8 10
15 15 15 4 0 6 -7 3 -15z m-714 -25 c-6 -11 -13 -20 -16 -20 -2 0 0 9 6 20 6
11 13 20 16 20 2 0 0 -9 -6 -20z m534 -7 c-4 -16 -11 -32 -16 -38 -9 -9 -1 39
9 58 9 16 13 5 7 -20z m30 -12 c-4 -17 -9 -30 -11 -27 -3 2 -2 19 2 36 4 17 9
30 11 27 2 -2 1 -18 -2 -36z m286 -6 c0 -8 -4 -15 -8 -15 -5 0 -9 7 -9 15 0 8
4 15 9 15 4 0 8 -7 8 -15z m-775 -5 c-3 -5 -16 -15 -28 -21 -19 -9 -19 -8 3
10 28 23 34 26 25 11z m669 -5 c-3 -8 -14 -17 -25 -20 -11 -4 -17 -10 -15 -14
3 -4 -1 -8 -9 -8 -8 0 -15 4 -15 9 0 4 4 8 8 8 5 0 19 9 32 20 28 24 31 25 24
5z m-244 -10 c0 -2 -10 -9 -22 -15 -22 -11 -22 -10 -4 4 21 17 26 19 26 11z
m-4 -52 c-8 -15 -15 -25 -16 -21 0 12 23 58 27 54 3 -2 -2 -17 -11 -33z m244
17 c0 -5 -10 -15 -22 -21 l-23 -12 20 21 c23 24 25 25 25 12z m-90 -5 c0 -2
-10 -10 -22 -16 -21 -11 -22 -11 -9 4 13 16 31 23 31 12z m-60 -40 c-7 -8 -17
-15 -23 -15 -6 0 -2 7 9 15 25 19 30 19 14 0z m-235 -5 c-3 -5 -11 -10 -16
-10 -6 0 -7 5 -4 10 3 6 11 10 16 10 6 0 7 -4 4 -10z m272 -10 c-1 -12 -5 -16
-10 -11 -5 5 -6 14 -3 20 11 16 15 13 13 -9z m53 16 c0 -2 -7 -7 -16 -10 -8
-3 -12 -2 -9 4 6 10 25 14 25 6z m-174 -48 c4 -6 3 -8 -2 -5 -5 3 -20 -10 -33
-29 -13 -19 -28 -34 -34 -34 -7 0 -7 4 1 12 7 7 12 20 12 31 0 10 4 16 9 13 5
-3 14 1 21 9 15 18 17 18 26 3z m-261 -28 c-3 -5 -12 -10 -18 -10 -7 0 -6 4 3
10 19 12 23 12 15 0z"/>
<path d="M2800 1970 c-12 -8 -10 -10 8 -10 13 0 20 4 17 10 -7 12 -6 12 -25 0z"/>
<path d="M830 1948 c0 -11 28 -10 35 1 3 6 -4 9 -15 8 -11 -1 -20 -5 -20 -9z"/>
<path d="M2765 1950 c3 -5 14 -10 23 -10 15 0 15 2 2 10 -20 13 -33 13 -25 0z"/>
<path d="M950 1940 c0 -6 7 -10 15 -10 8 0 15 2 15 4 0 2 -7 6 -15 10 -8 3
-15 1 -15 -4z"/>
<path d="M1910 1931 c-8 -16 -5 -20 14 -25 26 -6 95 17 78 28 -5 3 -26 8 -46
10 -28 4 -38 1 -46 -13z"/>
<path d="M2030 1921 c0 -24 239 -59 247 -36 1 6 -7 11 -19 12 -13 2 -45 5 -73
8 -27 3 -60 7 -72 8 -12 1 -25 5 -29 10 -10 10 -54 9 -54 -2z"/>
<path d="M2828 1920 c13 -6 31 -6 45 0 18 7 14 9 -23 9 -37 0 -41 -2 -22 -9z"/>
<path d="M1045 1910 c3 -5 8 -10 11 -10 2 0 4 5 4 10 0 6 -5 10 -11 10 -5 0
-7 -4 -4 -10z"/>
<path d="M2672 1913 c-23 -3 -32 -9 -29 -17 3 -8 -1 -13 -11 -12 -9 0 -16 -5
-14 -12 1 -7 -6 -15 -15 -19 -10 -3 -34 -12 -53 -20 -33 -14 -34 -15 -16 -29
11 -8 29 -11 39 -8 13 4 17 2 13 -5 -5 -7 -1 -9 9 -5 21 8 67 -4 60 -16 -3 -6
0 -11 7 -12 26 -3 33 -5 60 -18 15 -7 35 -9 45 -6 19 8 29 5 26 -5 -1 -4 3 -6
10 -6 33 1 71 -5 60 -10 -7 -2 -13 -12 -13 -20 0 -12 3 -13 13 -4 8 6 16 8 20
5 3 -3 42 -14 86 -24 l81 -18 133 59 132 60 -66 -5 c-36 -2 -72 0 -80 5 -8 5
-9 9 -4 10 6 0 -15 7 -45 15 -30 8 -77 23 -105 33 -27 10 -86 27 -130 36 -44
10 -92 23 -106 31 -14 7 -29 11 -33 7 -3 -3 -6 -1 -6 5 0 12 -6 12 -68 5z
m403 -153 c3 -6 -1 -7 -9 -4 -18 7 -21 14 -7 14 6 0 13 -4 16 -10z"/>
<path d="M878 1899 c-26 -15 -22 -29 8 -29 14 0 23 -4 20 -9 -4 -5 10 -4 30 2
l37 11 -32 8 c-17 5 -31 13 -31 18 0 13 -10 12 -32 -1z"/>
<path d="M1730 1839 c0 -5 5 -7 10 -4 6 3 10 8 10 11 0 2 -4 4 -10 4 -5 0 -10
-5 -10 -11z"/>
<path d="M1157 1829 c7 -7 15 -10 18 -7 3 3 -2 9 -12 12 -14 6 -15 5 -6 -5z"/>
<path d="M1525 1830 c-3 -5 -1 -10 4 -10 6 0 11 5 11 10 0 6 -2 10 -4 10 -3 0
-8 -4 -11 -10z"/>
<path d="M1995 1800 c11 -5 29 -9 40 -9 17 -1 17 1 5 9 -8 5 -26 9 -40 9 -23
0 -23 -1 -5 -9z"/>
<path d="M1795 1770 c-3 -6 1 -7 9 -4 18 7 21 14 7 14 -6 0 -13 -4 -16 -10z"/>
<path d="M3310 1753 c-8 -3 -26 -10 -40 -15 -17 -7 -21 -11 -11 -17 8 -5 -3
-10 -31 -14 -55 -8 -161 -54 -153 -67 9 -15 27 -12 19 3 -4 6 2 4 13 -5 11
-10 25 -18 31 -18 7 0 20 -4 30 -9 87 -42 93 -44 104 -33 16 16 28 15 28 -2 0
-9 7 -12 20 -9 18 5 25 -5 21 -29 -2 -16 25 -7 42 12 9 11 24 20 32 20 9 0 13
5 10 10 -11 17 -3 15 72 -22 29 -15 31 -15 26 0 -4 15 -3 15 6 2 6 -8 11 -18
11 -23 0 -9 -61 -3 -78 7 -7 4 -12 1 -12 -8 0 -10 -21 -17 -72 -26 -40 -6 -93
-15 -118 -20 -28 -5 -49 -5 -56 1 -8 7 -13 6 -16 -2 -2 -6 -87 -28 -188 -49
-102 -21 -174 -38 -160 -39 36 -1 137 16 273 45 89 20 121 23 131 15 10 -9 15
-8 19 2 3 8 42 17 113 26 60 7 117 15 126 17 12 4 15 0 11 -16 -3 -12 0 -20 6
-20 7 0 10 4 7 9 -10 16 23 20 55 7 29 -12 30 -14 13 -24 -15 -9 -16 -11 -3
-12 9 0 19 3 23 8 4 4 23 7 41 7 18 0 31 -3 28 -7 -2 -5 1 -8 7 -8 7 0 21 -11
32 -25 11 -14 27 -25 36 -24 12 0 11 3 -5 9 -33 13 -29 16 22 12 40 -4 44 -6
33 -20 -11 -13 -10 -15 12 -9 15 3 33 0 44 -9 13 -9 15 -14 6 -14 -7 0 -11 -2
-8 -5 3 -3 18 1 33 9 l29 15 -25 10 c-17 7 -19 10 -6 10 9 1 26 -8 37 -19 12
-12 15 -20 8 -20 -9 0 -10 -2 -2 -8 7 -4 14 -16 17 -27 4 -15 5 -14 6 8 1 34
31 37 62 6 15 -15 30 -20 50 -17 16 3 27 3 24 0 -2 -2 3 -11 11 -19 8 -8 12
-19 9 -24 -4 -5 3 -9 15 -9 12 0 18 5 15 10 -3 6 -1 10 5 10 6 0 8 5 5 10 -4
6 -11 8 -16 5 -5 -4 -9 -1 -9 5 0 7 7 9 16 6 8 -3 25 -1 36 5 25 13 35 5 18
-16 -11 -13 -8 -15 16 -15 22 0 26 3 14 10 -13 8 -12 10 3 10 10 0 16 3 13 8
-10 16 75 -1 87 -18 6 -9 22 -20 35 -24 26 -9 29 -33 5 -39 -16 -4 -16 -5 1
-6 11 -1 16 -6 13 -15 -4 -9 0 -12 13 -9 10 3 21 0 24 -6 9 -13 66 -15 66 -2
0 11 78 7 88 -4 4 -5 2 -5 -4 -2 -7 4 -14 1 -17 -7 -7 -17 20 -30 27 -13 2 7
5 0 5 -15 1 -25 -2 -27 -71 -38 -40 -6 -89 -16 -108 -21 -60 -15 -66 -11 -34
23 l29 31 -32 -22 c-18 -12 -33 -19 -33 -15 0 4 -10 -5 -21 -20 -15 -19 -29
-26 -48 -25 -14 2 -35 -2 -46 -8 -26 -14 -166 -45 -173 -38 -3 2 -11 0 -19 -7
-10 -8 -12 -8 -8 4 4 10 -1 17 -12 20 -23 6 -45 -1 -38 -12 3 -5 -4 -11 -15
-15 -11 -3 -20 -10 -20 -15 0 -12 -107 -43 -124 -37 -11 4 -9 20 10 74 25 72
31 108 10 59 -7 -16 -24 -35 -37 -42 -19 -10 -20 -13 -6 -14 23 0 22 -10 -8
-44 -14 -16 -25 -25 -25 -21 0 5 -5 4 -11 -2 -6 -6 -18 -9 -25 -6 -9 3 -14 -2
-14 -15 0 -36 -20 -35 -21 0 -1 18 -1 36 0 41 0 4 -14 1 -31 -6 -24 -10 -35
-22 -39 -43 l-5 -29 -5 33 c-3 17 -2 32 3 32 4 0 8 8 8 18 0 28 -57 22 -81 -8
-10 -14 -19 -31 -19 -37 0 -7 -4 -13 -8 -13 -5 0 -21 -22 -36 -50 -15 -27 -31
-50 -36 -50 -12 0 42 102 65 122 15 14 17 20 7 26 -10 7 -8 13 8 27 15 14 17
20 8 26 -7 4 -16 3 -20 -4 -5 -7 -8 -2 -9 13 0 21 -3 18 -20 -18 -10 -24 -23
-41 -29 -37 -7 4 -7 13 0 26 7 13 7 19 0 19 -5 0 -10 -4 -10 -9 0 -5 -8 -18
-17 -27 -17 -17 -17 -18 0 -11 9 3 17 2 17 -3 0 -10 -28 -28 -45 -28 -23 -1
-14 -22 9 -22 14 0 26 4 26 9 0 5 7 12 15 15 14 5 14 4 1 -16 -10 -15 -26 -22
-48 -22 -24 -1 -32 -5 -30 -16 1 -10 -2 -9 -13 4 -8 11 -15 25 -15 30 0 6 -5
4 -10 -4 -8 -13 -10 -12 -10 3 0 9 25 36 55 60 30 23 50 44 43 46 -6 2 -19 -7
-28 -19 -11 -15 -22 -20 -31 -15 -8 5 -11 5 -7 0 9 -9 -58 -82 -67 -73 -4 4 3
15 14 25 23 19 27 33 9 33 -6 0 -8 -3 -5 -7 4 -3 -2 -12 -13 -20 -11 -8 -20
-22 -20 -31 -1 -18 -23 -52 -34 -52 -3 0 -6 9 -6 20 0 23 -10 26 -28 8 -21
-21 -14 14 8 42 25 32 26 48 1 26 -19 -17 -19 -17 -14 4 5 20 4 21 -14 11 -13
-7 -26 -31 -36 -68 -12 -48 -17 -54 -22 -36 -4 13 -11 20 -16 17 -5 -3 -9 0
-9 7 0 8 -3 9 -13 0 -8 -6 -16 -9 -19 -6 -3 3 -11 -1 -18 -10 -9 -11 -17 -12
-30 -5 -20 11 -36 -2 -25 -20 3 -5 1 -10 -4 -10 -6 0 -22 -22 -36 -50 -21 -42
-22 -48 -8 -43 10 3 28 15 41 26 12 11 22 16 22 10 0 -6 -16 -21 -35 -33 -19
-12 -52 -42 -74 -67 -28 -34 -40 -42 -46 -32 -5 8 -5 11 0 7 7 -7 50 63 57 92
2 7 13 24 26 38 31 35 30 54 -3 42 -27 -10 -33 -2 -13 18 9 9 9 12 -1 12 -7 0
-3 8 10 18 12 11 24 29 26 41 3 19 0 21 -19 16 -13 -4 -31 -9 -40 -11 -10 -3
-18 -13 -18 -22 0 -13 -2 -14 -9 -4 -6 10 -17 9 -55 -6 -26 -10 -43 -21 -39
-26 13 -12 -20 -26 -52 -21 -16 3 -24 2 -17 -1 6 -3 12 -10 12 -15 0 -6 -8 -6
-19 1 -24 13 -41 13 -21 0 12 -7 10 -11 -10 -19 -22 -9 -19 -10 15 -6 22 3 42
10 43 15 2 6 8 10 14 10 7 0 6 -5 -1 -14 -6 -8 -10 -20 -9 -27 2 -8 -3 -13
-11 -11 -9 2 -11 -3 -7 -15 5 -14 1 -13 -13 5 -11 12 -27 22 -36 22 -14 0 -15
-3 -5 -15 9 -10 9 -15 1 -15 -6 0 -11 5 -11 11 0 6 -7 9 -15 5 -8 -3 -15 0
-15 6 0 7 -7 3 -16 -8 -8 -10 -12 -12 -8 -4 7 13 5 13 -8 2 -16 -12 -23 -66
-7 -57 4 3 7 -3 6 -14 -1 -14 -5 -17 -13 -10 -7 6 -20 1 -38 -16 -18 -17 -26
-20 -26 -10 0 8 5 15 10 15 6 0 10 7 10 15 0 8 -7 15 -16 15 -14 0 -14 1 0 16
15 14 14 18 -4 45 -26 36 -40 45 -40 25 0 -9 -6 -16 -13 -16 -7 0 -27 -12 -43
-27 -57 -54 -87 -78 -79 -64 5 8 23 28 42 44 18 16 30 33 27 38 -8 13 -24 11
-21 -3 1 -6 -7 -14 -18 -16 -17 -4 -16 0 8 25 29 31 37 54 12 33 -9 -8 -15 -8
-15 -2 0 6 7 17 15 26 8 8 15 20 15 26 0 6 4 9 9 6 4 -3 17 1 27 9 18 15 18
15 -1 8 -19 -6 -19 -5 3 19 31 34 28 42 -5 12 -15 -14 -32 -23 -39 -20 -7 3
-22 -7 -34 -22 -11 -15 -19 -21 -18 -14 2 8 15 27 30 44 16 16 25 34 22 39 -3
5 -2 8 3 7 9 -3 13 5 13 25 0 26 -29 13 -41 -17 -6 -18 -13 -25 -16 -18 -3 7
1 19 7 27 9 11 9 15 1 15 -6 0 -11 -4 -11 -9 0 -5 -14 -12 -30 -16 -17 -4 -28
-10 -25 -14 2 -5 -5 -17 -18 -27 -18 -16 -19 -16 -8 -1 7 9 10 17 6 17 -6 0
-91 -68 -169 -135 -16 -14 -32 -25 -36 -25 -5 0 -10 -3 -12 -7 -1 -5 -38 -34
-81 -67 -97 -73 -128 -120 -54 -82 15 8 27 10 27 5 0 -5 17 -1 38 9 20 10 60
24 87 31 28 7 76 19 108 28 31 9 59 14 62 11 3 -2 -57 -24 -133 -48 -75 -24
-139 -45 -141 -47 -2 -1 3 -11 12 -21 10 -10 17 -22 17 -27 0 -4 -9 4 -21 18
-23 30 -61 31 -104 3 -14 -9 -25 -14 -25 -10 0 3 20 43 45 88 25 46 45 87 45
91 0 5 -13 -4 -30 -20 -16 -15 -27 -33 -23 -38 3 -6 2 -7 -4 -4 -5 3 -38 -21
-74 -53 -62 -58 -63 -60 -31 -54 27 6 31 4 26 -10 -3 -9 -11 -16 -17 -16 -6 0
-7 -3 -4 -7 8 -7 -27 -33 -88 -65 -29 -15 -36 -16 -27 -5 7 8 34 26 60 38 37
18 42 24 26 27 -11 1 -34 -3 -50 -9 -16 -7 -33 -11 -37 -10 -5 1 -6 -3 -2 -9
7 -11 -81 -100 -99 -100 -6 0 12 22 39 50 54 54 50 58 -32 34 -38 -11 -68 -29
-97 -57 -23 -23 -51 -49 -61 -57 -18 -15 -18 -14 -2 10 24 35 21 43 -8 24 -14
-9 -25 -14 -25 -11 0 3 16 15 36 27 41 26 40 36 -2 19 -16 -7 -32 -13 -36 -13
-5 -1 -8 -5 -7 -9 1 -5 -11 -22 -26 -37 -15 -15 -26 -32 -25 -37 0 -4 -7 -10
-17 -12 -16 -3 -16 -1 -3 15 14 18 14 18 -3 5 -13 -10 -14 -17 -7 -26 13 -16
3 -24 -25 -19 -19 3 -19 2 -2 -11 16 -12 15 -14 -13 -23 -16 -6 -30 -8 -30 -5
0 3 -8 -1 -17 -8 -16 -13 -17 -12 -4 4 8 9 16 15 19 12 9 -9 31 16 26 29 -3 7
29 44 69 83 72 68 100 82 172 88 27 2 185 58 185 66 0 5 7 6 16 2 10 -4 29 8
54 32 33 32 37 41 28 54 -10 13 -10 14 1 4 11 -9 26 -1 72 39 32 29 55 56 52
61 -3 6 -2 7 3 4 6 -3 39 21 74 54 74 67 104 81 38 16 -42 -41 -87 -121 -75
-133 3 -3 37 18 76 47 65 50 70 57 70 92 1 21 5 36 10 33 4 -3 6 -18 3 -33
l-5 -26 29 20 c33 24 72 64 73 76 1 4 1 10 1 15 0 4 4 2 8 -5 6 -9 15 -6 35
13 15 14 25 30 21 35 -3 6 2 9 11 7 10 -2 20 2 22 8 2 7 -20 10 -69 7 -121 -6
-158 -13 -158 -29 0 -8 -4 -13 -9 -10 -12 8 -129 -87 -331 -269 -96 -87 -176
-153 -178 -146 -6 17 -29 13 -37 -6 -6 -17 -7 -17 -16 0 -6 10 -15 14 -22 10
-7 -4 -6 0 2 10 7 9 17 14 22 12 4 -3 25 14 46 37 65 72 88 95 101 99 7 2 10
11 7 20 -5 13 -25 3 -101 -54 -52 -39 -94 -76 -94 -83 0 -8 -6 -11 -13 -8 -8
3 -20 -3 -28 -12 -12 -16 -12 -17 3 -11 10 3 20 2 23 -3 4 -6 -8 -10 -26 -10
-31 0 -31 0 -15 25 16 24 12 31 -16 26 -5 0 -8 4 -8 10 0 6 9 8 23 4 12 -4 25
-8 28 -9 3 0 53 35 110 80 96 74 127 96 154 106 5 1 10 8 10 13 0 21 27 58 34
47 9 -14 137 84 135 104 -1 8 4 14 12 14 13 0 150 119 150 130 0 3 17 22 38
43 22 20 35 37 29 37 -6 0 -19 -11 -29 -25 -14 -20 -25 -24 -44 -20 -14 3 -20
2 -13 -2 8 -6 5 -14 -12 -28 -33 -29 -45 -29 -32 0 7 13 15 21 18 19 4 -2 9 3
13 11 3 8 0 15 -6 15 -6 0 -9 3 -6 6 4 3 15 1 27 -5 11 -7 22 -7 25 -2 4 5 0
11 -6 14 -7 2 7 10 31 16 63 18 44 24 -30 10 -59 -11 -65 -15 -82 -48 -10 -20
-36 -56 -58 -81 -56 -62 -14 19 45 88 23 26 21 26 -81 7 -133 -26 -134 -15 -1
18 l126 32 42 53 c23 28 37 52 32 52 -6 0 -19 3 -29 6 -13 4 -14 3 -5 -4 11
-7 9 -10 -7 -15 -12 -3 -19 -1 -15 4 7 12 -11 11 -57 -3 -22 -6 -39 -15 -39
-20 0 -5 -4 -6 -10 -3 -12 8 -90 -14 -111 -32 -9 -7 -18 -11 -21 -8 -3 3 -9
-6 -12 -21 -4 -14 -10 -24 -13 -20 -3 3 -13 0 -22 -7 -8 -6 -5 3 8 21 12 17
18 32 12 32 -6 0 -11 -3 -11 -7 0 -5 -14 -9 -31 -9 -20 -1 -39 -10 -51 -25
-12 -14 -18 -17 -15 -8 6 20 -36 9 -578 -140 -181 -50 -423 -117 -536 -148
l-205 -57 0 -30 c1 -24 -4 -32 -20 -34 -11 -2 -42 -25 -68 -52 -27 -28 -52
-50 -56 -50 -18 0 -17 28 2 51 18 22 19 22 8 2 -6 -13 -7 -23 -2 -23 13 0 28
20 37 50 7 23 7 24 -11 10 -18 -15 -18 -14 -1 13 21 33 17 46 -7 22 -9 -9 -16
-12 -16 -7 0 7 -13 6 -35 -1 -21 -6 -35 -17 -35 -26 0 -13 -2 -13 -9 -3 -7 11
-16 11 -50 1 l-41 -12 0 -90 0 -90 25 23 c14 13 25 29 25 37 0 7 5 13 10 13 6
0 17 15 25 33 12 27 14 28 15 9 0 -12 -9 -30 -20 -39 -15 -13 -17 -19 -7 -26
7 -5 8 -10 2 -13 -5 -2 -25 -13 -42 -24 -29 -18 -33 -25 -33 -65 0 -38 2 -43
18 -38 9 4 20 11 24 17 5 7 8 6 8 -3 0 -11 3 -11 16 0 9 7 39 21 67 31 54 19
80 23 62 10 -13 -9 -18 -28 -18 -71 -1 -19 -3 -29 -5 -22 -6 18 -32 -7 -32
-30 0 -11 -4 -19 -10 -19 -5 0 -10 9 -10 20 0 11 5 20 10 20 6 0 10 5 10 11 0
5 -4 7 -10 4 -20 -12 -9 11 19 43 l30 32 -27 -6 c-15 -4 -34 -12 -42 -19 -8
-7 -21 -10 -29 -7 -9 3 -11 0 -7 -7 4 -7 2 -10 -5 -9 -6 2 -14 -3 -16 -10 -4
-9 9 -7 38 8 l44 21 -28 -26 c-23 -20 -25 -25 -10 -25 14 0 18 -8 17 -38 -2
-58 -4 -60 -23 -14 -20 50 -33 57 -38 22 -2 -17 0 -21 6 -12 7 11 9 11 14 -2
4 -9 2 -16 -4 -16 -6 0 -7 -5 -4 -10 4 -6 11 -7 17 -4 6 4 6 -1 -1 -14 -6 -12
-17 -24 -24 -28 -8 -5 -7 -2 2 9 10 13 10 17 1 17 -6 0 -14 -9 -17 -20 -10
-37 -20 -11 -13 34 4 28 3 43 -3 39 -5 -3 -6 4 -2 18 12 40 12 39 -13 39 -4 0
-8 -36 -9 -80 -1 -57 2 -78 11 -73 7 3 6 1 -1 -8 -7 -7 -13 -24 -12 -38 l1
-26 8 25 c7 19 8 14 5 -20 -1 -25 -6 -52 -9 -60 -8 -19 -4 -49 8 -69 6 -10 5
-12 -2 -7 -9 5 -12 -9 -12 -49 0 -42 3 -54 13 -49 28 17 237 164 334 237 57
42 106 77 108 77 3 0 5 -7 5 -16 0 -8 -4 -13 -9 -9 -5 3 -15 -1 -23 -8 -7 -7
-28 -23 -46 -36 -19 -14 -31 -29 -28 -37 6 -15 -29 -38 -44 -29 -6 3 -10 0
-10 -8 0 -10 -7 -13 -18 -10 -11 3 -28 -6 -43 -21 -13 -14 -28 -26 -32 -26 -5
0 -20 -9 -34 -20 -24 -19 -24 -20 -5 -20 11 0 27 6 34 13 8 8 21 11 33 7 19
-7 19 -7 -2 -14 -13 -4 -23 -11 -23 -16 0 -4 -21 -7 -46 -6 -25 1 -48 -2 -51
-7 -2 -4 -28 -23 -56 -42 l-52 -35 130 0 c121 0 241 17 269 39 12 8 96 15 96
7 0 -2 -26 -13 -57 -23 l-58 -18 99 -3 c110 -3 140 2 116 19 -12 9 -12 10 3 5
20 -7 57 9 57 24 0 6 -19 10 -42 10 -40 1 -42 2 -24 15 22 17 61 20 51 5 -3
-6 0 -10 9 -10 8 0 37 28 64 63 28 34 64 75 81 91 17 17 31 34 31 38 0 12 68
71 92 80 11 4 17 12 14 16 -3 5 22 35 54 67 33 33 60 54 60 48 0 -6 -12 -21
-27 -33 -16 -12 -27 -25 -27 -28 1 -4 -13 -24 -32 -45 -19 -20 -34 -42 -34
-47 0 -6 -5 -10 -11 -10 -5 0 -7 4 -4 10 3 5 1 10 -5 10 -7 0 -10 -7 -6 -15 3
-8 -6 -26 -20 -40 -14 -14 -22 -30 -19 -35 3 -6 0 -10 -8 -10 -7 0 -24 -11
-37 -25 -12 -13 -26 -22 -30 -20 -10 6 -35 -24 -27 -32 4 -3 2 -12 -3 -18 -8
-9 1 -10 41 -1 28 7 57 20 64 29 12 16 13 16 18 -3 5 -18 -7 -34 -25 -35 -5 0
-7 -3 -5 -7 1 -4 -12 -22 -29 -40 -16 -18 -37 -42 -45 -52 -14 -19 -14 -19 16
-1 l30 19 -19 -22 -19 -22 50 0 c40 0 59 6 93 31 41 30 44 26 12 -16 -9 -11 1
-3 21 17 21 20 36 43 35 50 -2 6 2 12 7 13 16 1 35 15 35 26 0 6 -6 7 -12 3
-9 -5 -9 -2 1 9 7 9 10 17 6 17 -4 0 -2 7 5 15 16 19 31 19 24 0 -4 -8 -9 -13
-13 -10 -4 2 -8 -2 -8 -10 0 -13 4 -12 19 2 17 15 27 5 10 -11 -4 -4 -7 -11
-7 -16 0 -4 -19 -25 -43 -45 -23 -21 -42 -43 -42 -50 0 -8 -6 -15 -12 -18 -7
-3 14 -5 47 -4 33 0 66 5 74 11 11 8 13 8 7 -1 -5 -9 -1 -13 13 -13 11 0 22 9
26 20 3 11 10 20 14 20 5 0 11 13 14 28 4 19 26 45 64 77 33 27 48 45 36 41
-13 -4 -23 -3 -23 1 0 10 130 73 151 73 7 0 -15 -28 -49 -61 -34 -34 -62 -68
-62 -75 0 -7 -5 -14 -12 -16 -9 -3 -9 -6 0 -12 7 -4 12 -3 12 3 0 7 8 7 26 1
33 -13 81 -13 89 0 3 6 12 10 18 9 9 0 9 -2 0 -6 -27 -10 -12 -25 21 -21 27 3
33 1 28 -12 -5 -13 -4 -13 13 0 10 8 21 14 24 13 3 -1 8 1 11 4 3 4 -2 3 -10
-2 -15 -8 11 19 40 42 13 10 16 8 16 -8 0 -10 -6 -19 -12 -19 -6 0 -14 -9 -17
-19 -4 -16 2 -20 29 -23 22 -3 39 2 49 12 15 14 15 13 9 -3 -5 -13 -1 -17 16
-17 27 0 57 15 95 49 28 24 28 24 -3 -10 l-33 -36 53 -6 c29 -4 71 -7 92 -7
22 0 37 -3 33 -6 -3 -4 -53 -6 -109 -6 -57 1 -97 -1 -90 -4 6 -3 10 -9 7 -14
-3 -4 108 -9 246 -9 l251 -2 86 33 c71 27 82 33 62 38 -21 5 -18 7 20 14 24 4
49 10 55 14 20 15 66 32 60 23 -9 -15 82 18 96 35 9 11 8 14 -2 15 -8 0 -4 4
9 9 12 5 22 16 22 24 0 8 4 16 9 18 4 2 55 84 111 183 117 204 109 190 114
184 3 -2 -10 -29 -28 -59 -77 -129 -183 -316 -189 -332 -11 -30 6 -28 93 14
47 23 90 42 96 43 18 4 176 76 307 141 101 49 121 62 137 94 17 34 17 37 2 47
-15 10 -15 11 3 7 17 -4 26 5 46 43 64 125 104 193 112 193 7 0 -12 -38 -95
-186 l-28 -52 32 -1 c18 0 40 -2 48 -3 8 -2 48 14 89 35 40 21 75 37 76 35 2
-2 -21 -16 -50 -32 -30 -16 -52 -32 -49 -37 3 -5 -5 -9 -16 -9 -22 0 -143 -61
-167 -84 -23 -21 -123 -228 -116 -240 3 -6 3 -8 -1 -4 -5 4 -19 -5 -33 -20
l-24 -27 15 31 c8 17 12 34 9 38 -4 3 -1 6 5 6 11 0 117 188 109 196 -2 2 -91
-38 -198 -90 -107 -51 -204 -97 -217 -101 -15 -4 -21 -12 -18 -21 3 -8 2 -13
-3 -10 -10 6 -25 -24 -16 -32 3 -3 5 0 5 7 0 7 4 10 9 7 4 -3 6 -16 4 -29 l-5
-23 89 9 c63 7 94 15 109 28 11 11 24 19 28 19 5 0 -2 -9 -15 -20 l-24 -19 63
-1 c34 0 62 -2 62 -5 0 -3 -18 -37 -39 -75 l-40 -70 147 0 147 0 150 75 150
75 -195 0 c-243 -1 -245 -1 -237 6 3 4 54 6 112 5 80 -2 105 1 105 11 0 10 2
10 8 1 5 -9 43 -12 127 -11 104 1 127 5 173 26 29 13 56 22 58 19 3 -3 -9 -11
-26 -18 l-30 -14 42 -11 c43 -12 43 -12 -32 -12 -71 0 -81 -4 -190 -57 -63
-31 -117 -60 -120 -64 -3 -4 -16 -12 -30 -18 -19 -9 126 -12 618 -12 l642 -1
1 28 1 27 10 -27 10 -28 184 0 184 0 0 490 c-1 383 -3 489 -13 483 -9 -5 -9
-3 0 8 9 11 12 64 12 183 -2 159 -9 204 -27 155 -7 -19 -10 -20 -15 -6 -6 17
24 42 37 30 3 -3 6 -1 6 5 0 6 -4 13 -10 17 -5 3 -8 11 -6 18 1 7 1 9 -1 5 -3
-5 -13 -8 -24 -8 -10 0 -19 -6 -19 -14 0 -11 -13 -15 -51 -14 -33 0 -49 4 -46
11 2 7 12 14 22 15 9 2 15 0 11 -6 -3 -5 5 -7 19 -4 37 7 20 22 -25 22 -21 0
-40 5 -42 11 -6 18 -81 19 -96 0 -11 -14 -12 -14 -10 4 3 18 -4 20 -50 23 -35
2 -52 7 -49 15 2 6 -7 17 -21 24 -32 17 -34 16 -27 -6 5 -17 1 -17 -42 -10
-27 4 -65 14 -85 23 -22 10 -39 12 -43 6 -3 -6 -15 -6 -29 0 -13 5 -27 6 -32
2 -4 -4 -4 -1 1 7 10 17 -11 31 -48 31 -15 0 -35 4 -45 9 -9 5 -37 15 -62 21
-25 7 -56 16 -70 21 -15 6 -55 5 -100 -1 -90 -11 -189 -12 -150 -1 25 8 25 8
-7 15 -20 5 -30 12 -27 20 4 10 15 11 40 6 19 -4 34 -4 34 1 0 5 -12 11 -27
15 -16 3 -37 9 -48 12 -11 3 -38 6 -60 6 -22 1 -44 4 -50 7 -5 4 -36 14 -67
24 -32 10 -58 21 -58 26 0 4 -26 6 -57 4 -32 -1 -49 1 -38 5 15 5 9 9 -25 14
-25 5 -56 9 -70 10 -14 2 -38 8 -53 14 -16 7 -29 12 -30 11 -1 0 -9 -3 -17 -6z
m130 -45 c0 -4 -7 -8 -15 -8 -8 0 -15 4 -15 8 0 5 7 9 15 9 8 0 15 -4 15 -9z
m179 -114 c10 -9 -56 -3 -69 7 -11 7 -4 8 25 3 22 -4 42 -8 44 -10z m431 -75
c0 -4 -5 -11 -12 -15 -7 -4 -8 -3 -4 4 5 9 -7 12 -41 13 -26 1 -39 3 -28 6 11
3 24 9 29 13 9 9 56 -8 56 -21z m-110 11 c0 -5 -10 -10 -22 -9 -22 0 -22 1 -3
9 11 5 21 9 23 9 1 1 2 -3 2 -9z m375 -48 c-3 -3 -27 -5 -53 -5 -26 1 -53 -4
-60 -10 -10 -8 -16 -7 -22 2 -4 8 -13 10 -21 6 -10 -6 -11 -5 -4 3 6 6 39 12
75 14 67 3 95 0 85 -10z m-235 -2 c0 -5 -4 -10 -10 -10 -5 0 -10 5 -10 10 0 6
5 10 10 10 6 0 10 -4 10 -10z m500 -136 l-8 -39 -1 43 c-1 26 -6 42 -13 43
-10 0 -10 2 0 6 6 2 12 12 13 21 0 10 4 5 9 -9 4 -14 4 -43 0 -65z m-60 66 c0
-5 -5 -10 -11 -10 -5 0 -7 5 -4 10 3 6 8 10 11 10 2 0 4 -4 4 -10z m140 -51
c0 -5 -15 -9 -32 -9 l-33 1 25 13 c25 14 40 13 40 -5z m55 -4 c12 0 19 6 17
15 -3 12 -1 13 9 3 7 -7 22 -13 33 -13 20 0 20 0 0 -16 -19 -15 -18 -15 4 -11
12 3 20 1 16 -4 -8 -14 -84 -10 -100 5 -8 8 -14 23 -13 33 0 15 2 15 7 3 4 -9
16 -15 27 -15z m112 9 c-3 -3 -12 -4 -19 -1 -8 3 -5 6 6 6 11 1 17 -2 13 -5z
m33 -28 c0 -3 -4 -8 -10 -11 -5 -3 -10 -1 -10 4 0 6 5 11 10 11 6 0 10 -2 10
-4z m-45 -36 c-10 -11 -20 -18 -23 -15 -7 6 18 35 31 35 5 0 2 -9 -8 -20z m95
-20 c0 -5 -5 -10 -11 -10 -5 0 -7 5 -4 10 3 6 8 10 11 10 2 0 4 -4 4 -10z
m-299 -24 c5 3 9 -1 9 -8 0 -16 -19 -47 -21 -33 0 6 -2 21 -4 35 -2 14 -1 19
1 12 3 -6 10 -10 15 -6z m-181 0 c0 -2 -7 -7 -16 -10 -8 -3 -12 -2 -9 4 6 10
25 14 25 6z m226 -63 c-2 -16 -5 -31 -5 -35 -1 -5 -12 -8 -26 -8 -17 0 -25 5
-25 18 0 13 2 14 9 4 6 -11 11 -10 25 3 9 9 16 23 16 31 0 8 2 14 5 14 3 0 4
-12 1 -27z m27 -8 c-7 -21 -13 -19 -13 6 0 11 4 18 10 14 5 -3 7 -12 3 -20z
m37 1 c0 -2 -7 -7 -16 -10 -8 -3 -12 -2 -9 4 6 10 25 14 25 6z m-3030 -20 c0
-2 -8 -10 -17 -17 -16 -13 -17 -12 -4 4 13 16 21 21 21 13z m220 -10 c0 -2
-36 -24 -80 -50 -45 -26 -83 -55 -86 -64 -14 -44 -24 -56 -18 -22 3 19 14 42
24 51 11 9 16 20 12 24 -4 5 -2 5 5 1 6 -3 14 -2 18 4 3 5 13 10 21 10 8 0 32
11 52 25 34 23 52 30 52 21z m2811 -16 c0 8 4 4 8 -10 4 -16 14 -25 26 -25 11
0 23 -8 28 -19 6 -16 10 -16 25 -5 14 11 15 11 5 -1 -7 -8 -13 -20 -13 -28 0
-12 3 -12 15 -2 23 19 27 7 9 -29 -10 -20 -21 -30 -30 -27 -8 3 -20 -6 -29
-24 -8 -16 -23 -35 -33 -42 -26 -18 -42 -51 -43 -90 -1 -29 -2 -28 -9 12 -4
25 -4 55 1 68 5 12 6 22 3 22 -3 0 2 7 10 16 9 8 16 21 16 27 0 7 -6 5 -13 -5
-11 -14 -12 -7 -9 44 4 46 2 60 -8 56 -7 -2 -14 -12 -16 -22 -4 -26 -14 -33
-15 -10 -1 10 -2 28 -3 39 -2 29 12 55 29 55 9 0 15 -10 15 -26 0 -15 4 -23
11 -18 6 3 8 18 5 33 -5 19 -4 22 4 11 9 -13 10 -13 11 0z m-92 -73 c-8 -15
-8 -18 1 -12 14 9 8 -83 -9 -127 -15 -40 -34 -36 -26 5 15 78 20 158 12 173
-6 11 -5 19 4 25 19 11 32 -37 18 -64z m-39 35 c0 -9 -7 -26 -15 -36 -22 -29
-19 -56 5 -56 17 0 19 -4 14 -27 -4 -16 -13 -32 -21 -36 -7 -4 -13 -13 -13
-20 0 -7 4 -6 10 3 8 13 10 13 10 -2 0 -32 -19 -29 -28 4 l-9 33 -26 -50 c-14
-27 -26 -43 -26 -35 -1 8 6 28 14 44 8 15 12 32 9 37 -2 5 1 19 8 31 7 13 11
27 10 32 -2 5 4 16 13 26 11 12 13 24 7 41 -8 22 -9 21 -16 -14 -4 -22 -13
-37 -21 -37 -8 0 -12 -6 -9 -14 3 -8 -6 -43 -21 -78 -15 -34 -27 -70 -28 -78
-4 -29 -21 -39 -30 -17 -4 11 -4 23 1 26 12 8 33 73 22 66 -6 -4 -10 -12 -10
-20 0 -8 -5 -17 -10 -20 -7 -4 -9 3 -5 22 6 25 5 26 -6 8 -17 -28 -16 -27 -44
-30 -14 -2 -25 1 -25 6 0 5 8 9 18 10 11 0 12 2 4 6 -10 4 -9 8 5 19 10 7 13
14 7 14 -6 0 -22 -8 -35 -18 -13 -10 -30 -18 -38 -17 -23 0 -24 23 -2 35 14 7
21 21 21 38 0 16 6 34 13 41 10 11 8 11 -10 0 -12 -7 -19 -17 -17 -21 3 -4 -2
-8 -10 -8 -9 0 -16 -5 -16 -11 0 -5 -5 -7 -11 -4 -6 4 -22 -4 -36 -16 -15 -13
-23 -17 -19 -9 4 8 1 7 -8 -4 -14 -18 -42 -14 -31 5 4 5 2 9 -4 9 -5 0 -13 -5
-16 -10 -4 -6 -12 -7 -18 -3 -7 4 -6 -1 2 -10 12 -16 11 -21 -14 -47 -16 -17
-34 -30 -39 -30 -6 0 2 11 18 23 19 16 26 28 21 37 -6 10 -14 6 -34 -16 -14
-17 -22 -23 -16 -15 8 11 6 13 -12 7 -16 -5 -21 -3 -19 8 3 24 16 32 26 17 7
-12 11 -12 24 2 22 21 21 51 0 43 -9 -4 -23 -1 -31 6 -8 6 -13 7 -12 2 1 -5
-3 -22 -10 -38 -6 -16 -9 -37 -6 -47 4 -13 1 -19 -9 -19 -9 0 -13 7 -11 20 5
25 0 25 -33 -1 -25 -19 -27 -19 -39 -3 -12 16 -13 14 -13 -15 0 -19 -4 -30
-10 -26 -6 4 -7 11 -4 17 4 7 2 8 -4 4 -7 -4 -12 -14 -12 -23 0 -9 -6 -13 -15
-10 -8 4 -17 1 -21 -5 -4 -7 -3 -8 4 -4 7 4 12 1 12 -9 0 -10 -5 -13 -12 -9
-8 5 -9 0 -5 -17 5 -20 4 -22 -6 -8 -7 9 -18 14 -24 12 -16 -6 -16 1 0 35 7
15 12 33 11 40 -1 6 -2 17 -3 23 0 5 -6 7 -11 4 -6 -3 -8 -18 -4 -33 5 -25 4
-25 -9 -9 -19 23 -25 22 -29 -5 -2 -15 -10 -23 -23 -24 -11 -1 -22 -2 -25 -3
-3 -1 -27 -4 -55 -7 -27 -2 -54 -9 -59 -14 -7 -7 -6 -10 2 -10 7 0 12 -7 12
-15 0 -12 -3 -12 -20 2 -11 10 -20 23 -20 30 0 7 9 14 20 14 40 3 45 4 45 14
0 6 6 19 12 30 11 18 12 18 13 2 0 -10 5 -15 10 -12 6 3 10 1 10 -4 0 -6 -8
-11 -17 -11 -9 0 -14 -3 -10 -6 9 -9 98 6 92 15 -2 5 0 22 6 39 8 24 19 32 57
42 26 7 71 19 100 28 42 13 57 14 72 4 26 -16 31 -15 28 5 -3 16 18 25 104 47
23 5 27 4 21 -11 -3 -10 -13 -24 -21 -30 -9 -7 -11 -13 -6 -13 17 0 55 46 47
55 -5 4 -2 5 5 1 6 -4 12 -3 12 2 0 5 28 15 63 22 34 6 70 14 81 17 14 4 16 2
10 -8 -6 -12 -5 -12 9 0 9 7 17 10 17 6 0 -4 6 -2 14 4 12 10 13 8 9 -8 -3
-12 -10 -21 -15 -21 -5 0 -6 -4 -3 -10 4 -6 16 -4 31 6 15 10 24 12 24 5 0
-14 37 -15 45 -1 3 6 3 15 -1 21 -5 8 -9 8 -14 -1 -6 -10 -13 -9 -29 2 -19 14
-20 16 -6 22 9 3 21 4 26 0 5 -3 9 -1 9 4 0 9 89 31 103 24 4 -2 7 -11 7 -20z
m296 -21 c-10 -11 -15 -24 -12 -30 7 -11 -28 -83 -37 -75 -3 3 -4 -6 -3 -21 3
-19 -3 -29 -18 -36 -16 -8 -22 -20 -23 -50 -2 -22 -7 -47 -12 -56 -6 -11 -7
-3 -5 25 1 23 5 46 8 51 4 5 2 12 -4 16 -5 3 -10 1 -10 -4 0 -6 -5 -11 -10
-11 -6 0 -5 8 2 20 9 14 14 16 20 7 5 -8 8 -6 8 6 0 10 6 20 14 23 8 3 13 11
10 18 -3 7 8 28 23 47 15 18 21 29 13 24 -9 -6 -6 5 8 30 13 21 20 45 17 54
-5 14 -4 14 11 -1 17 -17 17 -18 0 -37z m-28 12 c-4 -24 -25 -27 -30 -5 -4 12
1 18 14 19 13 1 18 -4 16 -14z m-3228 3 c0 -2 -8 -10 -17 -17 -16 -13 -17 -12
-4 4 13 16 21 21 21 13z m3330 -8 c0 -27 -17 -39 -43 -33 l-27 7 23 19 c26 21
47 24 47 7z m-362 -43 c1 -14 -3 -25 -8 -25 -8 0 -8 23 -1 48 3 9 7 -2 9 -23z
m-2767 -8 c-10 -9 -11 -8 -5 6 3 10 9 15 12 12 3 -3 0 -11 -7 -18z m-123 -7
c-7 -10 -14 -17 -17 -15 -4 4 18 35 25 35 2 0 -1 -9 -8 -20z m3202 5 c0 -8 -2
-15 -4 -15 -2 0 -6 7 -10 15 -3 8 -1 15 4 15 6 0 10 -7 10 -15z m20 -42 c-13
-44 -47 -90 -58 -78 -4 4 -1 10 6 12 6 3 12 9 12 14 0 6 -4 7 -10 4 -5 -3 -10
-1 -10 4 0 6 5 11 10 11 6 0 10 6 10 14 0 15 40 69 47 63 2 -3 -1 -22 -7 -44z
m-3623 5 c-3 -7 -5 -2 -5 12 0 14 2 19 5 13 2 -7 2 -19 0 -25z m38 22 c-3 -5
-12 -10 -18 -10 -7 0 -6 4 3 10 19 12 23 12 15 0z m2660 0 c-3 -5 -14 -10 -23
-9 -14 0 -13 2 3 9 27 11 27 11 20 0z m979 -5 c-4 -8 -8 -15 -10 -15 -2 0 -4
7 -4 15 0 8 4 15 10 15 5 0 7 -7 4 -15z m-3124 -9 c-30 -13 -40 -25 -33 -43 3
-7 -3 -16 -13 -19 -11 -4 -29 -19 -42 -33 -15 -16 -22 -20 -18 -9 3 9 0 18 -7
21 -6 2 1 10 17 18 16 8 32 20 34 27 3 11 0 12 -16 3 -29 -16 -72 -31 -72 -26
0 7 100 54 100 47 0 -4 5 0 10 9 5 9 22 16 37 16 l28 0 -25 -11z m1710 6 c0
-5 -7 -17 -15 -28 -14 -18 -14 -17 -4 9 12 27 19 34 19 19z m1330 5 c0 -2 -11
-18 -25 -37 -14 -19 -25 -31 -25 -26 0 15 31 66 40 66 6 0 10 -1 10 -3z m-227
-44 c-3 -18 -9 -30 -14 -28 -4 3 -3 19 3 36 13 37 17 34 11 -8z m280 12 c-3
-9 -8 -14 -10 -11 -3 3 -2 9 2 15 9 16 15 13 8 -4z m-3656 -42 c-3 -10 -5 -4
-5 12 0 17 2 24 5 18 2 -7 2 -21 0 -30z m933 33 c0 -3 -4 -8 -10 -11 -5 -3
-10 -1 -10 4 0 6 5 11 10 11 6 0 10 -2 10 -4z m-995 -46 c-4 -12 -9 -19 -12
-17 -3 3 -2 15 2 27 4 12 9 19 12 17 3 -3 2 -15 -2 -27z m1107 18 c23 23 31
12 9 -12 -17 -18 -22 -32 -17 -50 3 -14 2 -27 -2 -30 -5 -3 -9 11 -10 31 -1
19 -4 45 -7 57 -5 16 -4 18 4 6 8 -12 13 -12 23 -2z m-1345 -30 c-3 -7 -5 -2
-5 12 0 14 2 19 5 13 2 -7 2 -19 0 -25z m437 13 c-5 -5 -20 -12 -34 -16 -23
-6 -22 -5 5 13 29 19 48 21 29 3z m1506 15 c0 -2 -8 -10 -17 -17 -16 -13 -17
-12 -4 4 13 16 21 21 21 13z m1339 -47 c-12 -23 -31 -35 -23 -14 5 11 2 14
-10 9 -9 -3 -17 -14 -17 -23 -1 -12 -2 -12 -6 3 -6 22 48 71 59 53 4 -6 2 -19
-3 -28z m-3101 24 c-10 -2 -28 -2 -40 0 -13 2 -5 4 17 4 22 1 32 -1 23 -4z
m892 -3 c0 -5 -5 -10 -11 -10 -5 0 -7 5 -4 10 3 6 8 10 11 10 2 0 4 -4 4 -10z
m190 6 c0 -2 -7 -7 -16 -10 -8 -3 -12 -2 -9 4 6 10 25 14 25 6z m1058 -33 c-5
-21 -12 -40 -15 -43 -6 -6 7 61 14 73 10 17 11 4 1 -30z m-1618 7 c-12 -22
-12 -22 -35 -13 -15 5 -14 8 6 19 34 19 41 17 29 -6z m1170 10 c0 -5 -5 -10
-11 -10 -5 0 -7 5 -4 10 3 6 8 10 11 10 2 0 4 -4 4 -10z m890 0 c0 -5 -4 -10
-10 -10 -5 0 -10 5 -10 10 0 6 5 10 10 10 6 0 10 -4 10 -10z m990 7 c0 -2 -10
-12 -22 -23 l-23 -19 19 23 c18 21 26 27 26 19z m-3337 -22 c-3 -9 -8 -14 -10
-11 -3 3 -2 9 2 15 9 16 15 13 8 -4z m3427 0 c-7 -9 -15 -13 -17 -11 -7 7 7
26 19 26 6 0 6 -6 -2 -15z m-4200 -5 c0 -13 -30 -13 -50 0 -11 7 -7 10 18 10
17 0 32 -4 32 -10z m240 3 c-8 -3 -18 -11 -22 -17 -5 -7 -8 -4 -8 7 0 11 7 17
23 16 15 0 17 -2 7 -6z m2180 4 c0 -2 -11 -17 -25 -33 -14 -16 -25 -25 -25
-20 0 6 10 20 22 33 20 22 28 27 28 20z m1902 -19 c-7 -7 -12 -8 -12 -2 0 14
12 26 19 19 2 -3 -1 -11 -7 -17z m-4139 5 c-7 -2 -19 -2 -25 0 -7 3 -2 5 12 5
14 0 19 -2 13 -5z m2429 -37 c-15 -16 -17 -17 -20 -2 -2 10 -1 24 2 32 5 12 8
13 20 2 12 -11 12 -16 -2 -32z m149 10 c-14 -36 -22 -33 -9 5 6 16 12 28 14
26 3 -2 0 -16 -5 -31z m-2641 14 c-27 -8 -26 -9 47 -34 22 -8 43 -13 45 -11 1
2 9 -3 16 -11 16 -18 19 -18 -82 11 -47 14 -95 25 -106 25 -11 0 -17 5 -15 13
3 7 27 12 63 13 38 1 49 -2 32 -6z m856 -5 c-11 -8 -27 -15 -35 -15 -10 1 -7
6 9 15 33 19 50 18 26 0z m1998 0 c-6 -16 -24 -21 -24 -7 0 11 11 22 21 22 5
0 6 -7 3 -15z m1017 -325 c-1 -183 -3 -335 -6 -338 -3 -3 -5 149 -5 338 0 189
2 341 5 338 3 -3 6 -155 6 -338z m31 314 c-7 -12 -11 -13 -17 -4 -4 7 -2 16 6
21 18 11 23 4 11 -17z m107 -17 c1 -4 -5 -2 -13 5 -7 7 -11 19 -8 27 4 11 7
10 13 -5 4 -10 8 -23 8 -27z m-3762 11 c-3 -8 -6 -5 -6 6 -1 11 2 17 5 13 3
-3 4 -12 1 -19z m282 6 c4 3 13 1 21 -5 12 -7 10 -9 -7 -9 -12 0 -32 -10 -45
-23 -13 -12 -20 -18 -15 -13 15 20 6 24 -29 14 -20 -5 -38 -7 -40 -5 -3 3 18
10 45 17 35 8 51 17 52 28 0 11 2 12 6 4 2 -6 8 -10 12 -8z m371 13 c0 -2 -12
-14 -27 -28 l-28 -24 24 28 c23 25 31 32 31 24z m1470 -17 c0 -10 8 -24 18
-29 15 -9 15 -10 -4 -11 -12 0 -27 7 -34 15 -10 12 -10 15 0 15 7 0 10 7 6 15
-3 8 -1 15 4 15 6 0 10 -9 10 -20z m1180 16 c0 -3 -4 -8 -10 -11 -5 -3 -10 -1
-10 4 0 6 5 11 10 11 6 0 10 -2 10 -4z m-2953 -12 c-3 -3 -12 -4 -19 -1 -8 3
-5 6 6 6 11 1 17 -2 13 -5z m1476 -9 c-3 -9 -8 -14 -10 -11 -3 3 -2 9 2 15 9
16 15 13 8 -4z m208 -8 c-10 -9 -11 -8 -5 6 3 10 9 15 12 12 3 -3 0 -11 -7
-18z m1193 -2 c-15 -23 -33 -37 -19 -16 3 5 -3 12 -12 14 -14 4 -13 5 4 6 12
0 25 6 28 11 3 6 8 10 11 10 2 0 -3 -11 -12 -25z m99 -6 c-9 -9 -12 -7 -10 9
1 14 5 18 11 12 7 -7 6 -14 -1 -21z m-3993 11 c-8 -5 -19 -10 -25 -10 -5 0 -3
5 5 10 8 5 20 10 25 10 6 0 3 -5 -5 -10z m280 0 c0 -5 -5 -10 -11 -10 -5 0 -7
5 -4 10 3 6 8 10 11 10 2 0 4 -4 4 -10z m3754 -11 c-3 -5 -10 -7 -15 -3 -5 3
-7 10 -3 15 3 5 10 7 15 3 5 -3 7 -10 3 -15z m576 18 c0 -2 -9 -14 -20 -27
-11 -13 -20 -17 -20 -10 0 7 8 19 18 26 18 14 22 16 22 11z m-4560 -22 c-10
-12 -9 -15 6 -16 12 0 9 -4 -9 -9 -16 -5 -38 -5 -50 0 -21 8 -21 9 4 9 15 1
32 8 39 16 7 8 15 15 17 15 3 0 0 -7 -7 -15z m1953 -5 c-3 -11 -7 -20 -9 -20
-2 0 -4 9 -4 20 0 11 4 20 9 20 5 0 7 -9 4 -20z m1617 -34 c-1 -61 -1 -64 2
-114 2 -23 2 -42 1 -42 -2 0 -12 19 -23 43 -14 28 -16 35 -5 22 18 -22 18 -28
0 59 -3 13 -8 32 -11 43 -5 17 -4 17 10 -1 15 -19 16 -18 16 14 0 18 3 31 6
28 3 -4 5 -27 4 -52z m-3240 27 c0 -10 -4 -14 -8 -8 -4 6 -11 13 -16 18 -5 4
-2 7 7 7 10 0 17 -8 17 -17z m2880 7 c0 -5 -7 -7 -15 -4 -8 4 -15 8 -15 10 0
2 7 4 15 4 8 0 15 -4 15 -10z m1230 -5 c0 -8 -4 -15 -10 -15 -5 0 -10 7 -10
15 0 8 5 15 10 15 6 0 10 -7 10 -15z m-3330 -10 c-7 -8 -18 -15 -26 -15 -7 0
-19 -9 -27 -21 -9 -12 -18 -16 -21 -10 -4 5 13 21 36 35 50 30 55 31 38 11z
m1740 5 c0 -5 -2 -10 -4 -10 -3 0 -8 5 -11 10 -3 6 -1 10 4 10 6 0 11 -4 11
-10z m172 -12 c-7 -7 -12 -8 -12 -2 0 14 12 26 19 19 2 -3 -1 -11 -7 -17z
m274 -4 c-4 -9 -9 -15 -11 -12 -3 3 -3 13 1 22 4 9 9 15 11 12 3 -3 3 -13 -1
-22z m736 -1 c-3 -16 -7 -22 -10 -15 -4 13 4 42 11 42 2 0 2 -12 -1 -27z
m-3945 -16 c-12 -12 -25 -18 -28 -13 -4 5 -12 5 -19 1 -9 -5 -11 -4 -6 3 4 7
16 12 27 12 11 0 22 7 25 15 4 8 10 13 14 10 5 -3 -1 -16 -13 -28z m2683 3
c-11 -16 -26 -33 -32 -36 -7 -4 1 9 16 29 34 44 46 50 16 7z m670 21 c0 -5 -6
-11 -13 -14 -8 -3 -14 1 -14 9 0 8 6 14 14 14 7 0 13 -4 13 -9z m-1020 -11 c0
-5 -2 -10 -4 -10 -3 0 -8 5 -11 10 -3 6 -1 10 4 10 6 0 11 -4 11 -10z m290 6
c0 -3 -4 -8 -10 -11 -5 -3 -10 -1 -10 4 0 6 5 11 10 11 6 0 10 -2 10 -4z m17
-28 c-3 -7 -5 -2 -5 12 0 14 2 19 5 13 2 -7 2 -19 0 -25z m-2114 11 c16 1 26
-3 23 -8 -3 -4 22 -18 57 -30 34 -12 77 -29 96 -37 30 -13 36 -13 60 2 25 17
25 17 12 0 -13 -15 -13 -19 0 -27 19 -12 33 -11 49 4 12 10 12 9 2 -4 -16 -21
-1 -28 51 -23 20 2 37 2 37 0 0 -1 -30 -18 -67 -37 -43 -21 -61 -35 -50 -37
32 -6 17 -22 -20 -22 -21 0 -54 -9 -73 -20 l-35 -21 30 26 c17 13 56 39 88 55
31 17 57 33 57 36 0 3 -4 2 -10 -1 -5 -3 -10 -1 -10 4 0 23 -33 9 -79 -34 -26
-25 -55 -45 -65 -45 -9 0 -16 -3 -16 -7 0 -5 -17 -21 -38 -37 l-37 -29 33 35
c23 24 31 40 26 54 -4 12 -3 15 3 7 7 -9 14 -9 33 2 14 8 34 18 45 23 11 6 28
19 38 30 18 19 17 20 -15 32 -104 40 -173 58 -206 54 -27 -3 -31 -2 -17 4 19
9 19 9 -4 21 -18 10 -33 10 -72 1 -28 -7 -52 -10 -55 -7 -3 3 13 8 36 12 38 6
40 8 23 22 -17 13 -16 14 12 7 17 -4 43 -6 58 -5z m567 6 c0 -2 -6 -8 -13 -14
-10 -8 -14 -7 -14 2 0 8 6 14 14 14 7 0 13 -1 13 -2z m1047 -17 c-3 -8 -6 -5
-6 6 -1 11 2 17 5 13 3 -3 4 -12 1 -19z m258 12 c3 -5 1 -10 -4 -10 -6 0 -11
5 -11 10 0 6 2 10 4 10 3 0 8 -4 11 -10z m742 4 c-3 -3 -12 -4 -19 -1 -8 3 -5
6 6 6 11 1 17 -2 13 -5z m-2228 -21 c-12 -15 -12 -16 6 -10 19 7 19 7 1 -8
-10 -8 -22 -12 -26 -10 -4 3 -13 -2 -20 -10 -7 -8 -17 -15 -23 -15 -6 0 7 16
29 35 43 38 54 44 33 18z m1331 6 c0 -6 -4 -7 -10 -4 -5 3 -10 -2 -11 -12 0
-11 -3 -13 -6 -5 -4 10 -8 10 -21 0 -13 -12 -14 -11 -2 7 13 22 50 31 50 14z
m1345 1 c-9 -15 -45 -32 -45 -22 0 5 10 14 23 20 29 14 29 14 22 2z m-2854
-27 c-8 -15 -10 -15 -11 -2 0 17 10 32 18 25 2 -3 -1 -13 -7 -23z m2378 5 c0
-16 -2 -18 -6 -8 -3 8 -11 18 -17 22 -7 5 -4 8 7 8 11 0 17 -7 16 -22z m-2424
2 c-3 -5 -18 -9 -33 -9 l-27 1 30 8 c17 4 31 8 33 9 2 0 0 -3 -3 -9z m1891 -2
c4 -7 3 -8 -4 -4 -7 4 -12 2 -12 -3 0 -6 -5 -11 -11 -11 -8 0 -8 5 1 15 15 18
17 18 26 3z m-2666 -2 c0 -2 -7 -7 -16 -10 -8 -3 -12 -2 -9 4 6 10 25 14 25 6z
m2480 1 c0 -2 -10 -12 -21 -23 -22 -19 -22 -19 -10 4 10 18 31 31 31 19z
m-2535 -16 c3 -6 -5 -15 -17 -22 -13 -7 -27 -18 -31 -26 -5 -7 -14 -10 -20 -7
-7 4 -9 4 -5 -1 7 -7 -18 -65 -28 -65 -3 0 -2 4 1 10 3 5 8 19 10 29 4 20 3
20 -31 0 -48 -26 -51 -24 -12 8 18 16 39 34 46 41 8 6 17 10 21 7 5 -2 16 4
26 15 20 22 31 25 40 11z m522 3 c-3 -3 -12 -4 -19 -1 -8 3 -5 6 6 6 11 1 17
-2 13 -5z m1754 -45 c-2 -29 -6 -47 -10 -41 -8 13 -2 92 8 92 3 0 4 -23 2 -51z
m-1970 1 c6 0 7 6 3 13 -5 9 -4 9 6 0 16 -15 7 -28 -15 -20 -8 4 -14 17 -14
29 l2 23 4 -22 c2 -13 9 -23 14 -23z m176 34 c-3 -3 -12 -4 -19 -1 -8 3 -5 6
6 6 11 1 17 -2 13 -5z m1497 -2 c3 -5 -12 -26 -34 -47 -43 -42 -44 -71 -2 -33
l26 23 -24 -31 c-61 -78 -74 -93 -78 -89 -3 2 8 18 22 36 35 41 19 65 -19 29
-19 -18 -22 -26 -13 -33 9 -6 8 -7 -4 -4 -11 4 -39 -15 -82 -54 -36 -34 -66
-56 -66 -51 0 5 23 29 52 53 96 81 118 104 118 121 0 17 10 22 36 19 6 -1 21
11 35 25 26 29 26 29 -44 -4 -26 -13 -45 -27 -42 -32 3 -6 -1 -7 -9 -4 -9 3
-30 -3 -48 -14 -18 -11 -114 -61 -213 -111 -168 -86 -181 -95 -201 -133 -12
-23 -27 -44 -34 -46 -7 -3 -1 13 14 34 14 21 24 39 23 41 -2 1 -72 -31 -156
-72 -84 -41 -159 -75 -167 -75 -21 0 63 98 99 117 36 18 47 10 15 -11 -13 -9
-34 -29 -46 -46 l-23 -30 55 27 c30 15 52 31 49 36 -3 6 -1 7 5 3 6 -3 54 15
107 41 87 43 99 52 120 93 25 48 54 90 55 78 0 -4 -13 -29 -30 -54 -16 -26
-28 -49 -26 -51 5 -5 110 49 118 61 4 6 8 7 8 3 0 -10 112 47 157 80 17 13 36
23 41 23 6 0 50 20 98 44 97 49 100 50 108 38z m-1537 -8 c-3 -3 -12 -4 -19
-1 -8 3 -5 6 6 6 11 1 17 -2 13 -5z m186 -1 c-7 -2 -19 -2 -25 0 -7 3 -2 5 12
5 14 0 19 -2 13 -5z m427 3 c0 -2 -8 -10 -17 -17 -16 -13 -17 -12 -4 4 13 16
21 21 21 13z m1107 -18 c-3 -8 -6 -5 -6 6 -1 11 2 17 5 13 3 -3 4 -12 1 -19z
m194 -30 c-9 -31 -9 -31 -10 -6 -1 30 11 67 16 51 2 -6 0 -26 -6 -45z m1013
37 c-4 -8 -11 -15 -16 -15 -6 0 -5 6 2 15 7 8 14 15 16 15 2 0 1 -7 -2 -15z
m813 -17 c-3 -7 -5 -2 -5 12 0 14 2 19 5 13 2 -7 2 -19 0 -25z m-3780 16 c-3
-3 -12 -4 -19 -1 -8 3 -5 6 6 6 11 1 17 -2 13 -5z m-40 -10 c-3 -3 -12 -4 -19
-1 -8 3 -5 6 6 6 11 1 17 -2 13 -5z m156 -1 c-7 -2 -19 -2 -25 0 -7 3 -2 5 12
5 14 0 19 -2 13 -5z m617 4 c0 -2 -15 -13 -32 -26 l-33 -22 28 25 c26 24 37
31 37 23z m1558 -89 c-77 -99 -221 -305 -233 -333 -7 -18 -9 -18 -12 -3 -2 9
5 26 17 38 11 11 18 26 14 32 -4 6 -3 8 3 5 11 -7 38 41 34 58 -2 5 1 7 5 2 4
-4 31 26 60 65 45 62 50 74 36 80 -14 5 -13 7 5 7 15 1 39 23 75 70 29 38 55
68 56 66 2 -2 -25 -41 -60 -87z m-868 72 c0 -5 -4 -10 -10 -10 -5 0 -10 5 -10
10 0 6 5 10 10 10 6 0 10 -4 10 -10z m-1520 -21 c-14 -4 -38 -7 -55 -7 -22 1
-24 2 -7 5 12 2 22 8 22 12 0 4 15 5 33 2 31 -4 31 -5 7 -12z m1877 -26 c-12
-13 -15 -13 -20 1 -4 10 -1 13 9 9 9 -3 14 2 15 18 1 19 2 20 6 5 3 -10 -2
-25 -10 -33z m114 24 c-10 -9 -11 -8 -5 6 3 10 9 15 12 12 3 -3 0 -11 -7 -18z
m37 -2 c-2 -15 -6 -21 -11 -16 -6 6 -7 17 -4 25 9 24 17 19 15 -9z m1602 21
c0 -2 -7 -7 -16 -10 -8 -3 -12 -2 -9 4 6 10 25 14 25 6z m-3891 -28 c-40 -24
-100 -51 -104 -46 -6 6 97 58 104 52 2 -2 2 -5 0 -6z m151 2 c0 -5 -5 -10 -11
-10 -5 0 -7 5 -4 10 3 6 8 10 11 10 2 0 4 -4 4 -10z m1320 -19 c-12 -23 -32
-29 -27 -9 2 14 30 39 35 33 2 -2 -1 -13 -8 -24z m1000 8 c-7 -11 -14 -19 -16
-16 -7 7 7 37 17 37 6 0 5 -9 -1 -21z m-2730 7 c0 -3 -4 -8 -10 -11 -5 -3 -10
-1 -10 4 0 6 5 11 10 11 6 0 10 -2 10 -4z m3834 -33 c8 -19 2 -16 -25 13 -23
25 -23 26 -2 13 13 -7 25 -19 27 -26z m-3507 11 c-3 -3 -12 -4 -19 -1 -8 3 -5
6 6 6 11 1 17 -2 13 -5z m693 2 c0 -2 -8 -10 -17 -17 -16 -13 -17 -12 -4 4 13
16 21 21 21 13z m1403 -16 c-3 -11 -7 -20 -9 -20 -2 0 -4 9 -4 20 0 11 4 20 9
20 5 0 7 -9 4 -20z m1067 17 c0 -2 -12 -14 -27 -28 l-28 -24 24 28 c23 25 31
32 31 24z m-3212 -14 c-60 -15 15 -22 260 -24 152 -1 302 -3 332 -4 30 -2 67
-4 83 -4 33 -1 36 -21 3 -21 -14 0 -27 -4 -31 -9 -3 -5 -23 -23 -44 -40 -37
-29 -39 -30 -28 -7 6 13 16 22 22 19 6 -2 20 6 30 17 l19 21 -220 -1 c-136 -1
-224 -5 -231 -12 -9 -7 -13 -7 -13 1 0 7 -35 11 -108 11 -105 0 -109 -1 -122
-25 -7 -13 -17 -22 -23 -18 -5 3 -3 9 4 14 12 7 11 9 -1 10 -10 0 -8 3 5 9 15
6 8 9 -30 10 l-50 2 30 13 c17 8 43 14 58 15 16 0 26 4 23 9 -7 10 11 20 34
19 10 0 9 -2 -2 -5z m3607 -43 c9 -16 13 -30 11 -30 -3 0 -12 14 -21 30 -9 17
-13 30 -11 30 3 0 12 -13 21 -30z m-2645 -3 c8 -3 -3 -6 -24 -6 -37 -1 -38 0
-20 13 10 8 21 11 24 7 3 -5 12 -11 20 -14z m-1295 -17 c-3 -5 -11 -10 -16
-10 -6 0 -7 5 -4 10 3 6 11 10 16 10 6 0 7 -4 4 -10z m-35 -10 c0 -5 -4 -10
-10 -10 -5 0 -10 5 -10 10 0 6 5 10 10 10 6 0 10 -4 10 -10z m1305 -16 c-16
-13 -43 -36 -58 -50 -29 -28 -44 -30 -24 -4 18 24 90 80 102 80 5 0 -3 -12
-20 -26z m1808 19 c-24 -2 -62 -2 -85 0 -24 2 -5 4 42 4 47 0 66 -2 43 -4z
m-1843 -7 c0 -2 -8 -10 -17 -17 -16 -13 -17 -12 -4 4 13 16 21 21 21 13z
m1230 -12 c0 -2 -9 -4 -20 -4 -11 0 -20 4 -20 9 0 5 9 7 20 4 11 -3 20 -7 20
-9z m1025 6 c-3 -6 -11 -8 -16 -5 -5 4 -9 2 -9 -3 0 -5 -11 -7 -25 -4 -38 7
-30 18 16 21 27 1 38 -2 34 -9z m-2948 -22 c-3 -8 -6 -5 -6 6 -1 11 2 17 5 13
3 -3 4 -12 1 -19z m2423 19 c0 -2 -12 -14 -27 -28 l-28 -24 24 28 c23 25 31
32 31 24z m1015 -27 c9 -16 13 -30 11 -30 -3 0 -12 14 -21 30 -9 17 -13 30
-11 30 3 0 12 -13 21 -30z m-1881 -11 c-24 -26 -25 -30 -9 -26 48 14 187 39
191 34 3 -2 -12 -8 -33 -11 -98 -18 -210 -50 -228 -65 -18 -15 -19 -15 -7 1
10 13 10 17 0 21 -7 3 0 6 16 6 20 1 27 5 23 15 -4 9 -1 13 6 10 7 -2 24 7 37
21 13 14 26 25 29 25 2 0 -8 -14 -25 -31z m283 25 c-3 -3 -12 -4 -19 -1 -8 3
-5 6 6 6 11 1 17 -2 13 -5z m-1917 -8 c0 -3 -4 -8 -10 -11 -5 -3 -10 -1 -10 4
0 6 5 11 10 11 6 0 10 -2 10 -4z m1873 -3 c-7 -2 -21 -2 -30 0 -10 3 -4 5 12
5 17 0 24 -2 18 -5z m-1746 -17 c0 -8 -6 -12 -15 -9 -11 5 -11 7 0 14 7 5 13
9 14 9 0 0 1 -6 1 -14z m-167 0 c0 -3 -4 -8 -10 -11 -5 -3 -10 -1 -10 4 0 6 5
11 10 11 6 0 10 -2 10 -4z m3600 -66 c11 -22 18 -40 15 -40 -2 0 -14 18 -25
40 -11 22 -18 40 -15 40 2 0 14 -18 25 -40z m-3167 14 c3 -3 3 -13 0 -21 -5
-12 -7 -12 -14 -1 -15 23 -4 40 14 22z m272 -4 c-7 -12 7 -13 21 -2 5 4 -2 -3
-16 -16 -14 -13 -66 -63 -115 -113 -50 -49 -101 -91 -114 -94 -17 -3 4 22 75
90 54 52 102 95 105 95 4 0 12 7 19 15 10 12 10 15 -1 16 -8 0 -5 4 6 9 27 11
27 11 20 0z m-610 -8 c-32 -27 -118 -83 -122 -78 -3 2 0 17 6 33 8 20 10 21 7
6 -2 -13 -2 -23 1 -23 7 0 78 54 81 63 2 4 11 7 20 7 9 0 12 -3 7 -8z m2709
-34 c3 -15 2 -29 -3 -32 -5 -3 -7 -14 -5 -24 2 -9 1 -30 -4 -47 -8 -28 -9 -28
-14 -7 -3 12 -2 22 3 22 6 0 7 27 3 68 -6 66 6 79 20 20z m-1804 22 c0 -5 -2
-10 -4 -10 -3 0 -8 5 -11 10 -3 6 -1 10 4 10 6 0 11 -4 11 -10z m773 3 c-7 -2
-19 -2 -25 0 -7 3 -2 5 12 5 14 0 19 -2 13 -5z m-1970 -23 c-3 -12 -8 -19 -11
-16 -5 6 5 36 12 36 2 0 2 -9 -1 -20z m1926 16 c-2 -2 -26 -6 -54 -9 -34 -4
-42 -3 -25 3 25 8 87 13 79 6z m-147 -23 c-6 -2 -10 -8 -8 -12 3 -4 1 -13 -5
-21 -7 -13 -9 -12 -9 3 0 27 -31 20 -69 -15 -31 -29 -33 -29 -11 -4 l25 28
-35 -7 c-19 -4 -32 -4 -28 0 4 4 33 13 65 20 60 13 98 18 75 8z m-1816 -29
c-3 -7 9 -28 27 -45 22 -23 25 -29 10 -21 -30 16 -33 15 -33 -12 0 -14 -4 -28
-10 -31 -5 -3 -10 -2 -10 3 0 11 -37 25 -61 23 -9 -1 -19 7 -22 19 -4 14 -11
18 -24 14 -17 -5 -17 -4 1 10 11 9 25 16 30 16 6 0 5 -4 -1 -8 -9 -6 1 -15 31
-28 35 -17 43 -18 38 -6 -3 10 -1 13 6 8 16 -10 26 14 12 27 -9 9 -11 9 -7 1
4 -7 -2 -14 -13 -17 -23 -6 -24 -1 -9 41 7 21 15 29 25 25 8 -3 13 -12 10 -19z
m454 -27 c-19 -17 -34 -32 -32 -34 1 -2 0 -3 -3 -3 -3 0 -5 3 -6 6 -1 9 65 70
71 66 3 -2 -11 -18 -30 -35z m-425 23 c-3 -5 -11 -10 -16 -10 -6 0 -7 5 -4 10
3 6 11 10 16 10 6 0 7 -4 4 -10z m-177 -13 c8 -10 6 -13 -9 -13 -19 0 -24 7
-12 19 8 9 9 9 21 -6z m3623 -13 c5 -15 8 -29 5 -31 -2 -2 -8 10 -14 26 -13
38 -5 41 9 5z m414 -4 c9 -16 13 -30 11 -30 -3 0 -12 14 -21 30 -9 17 -13 30
-11 30 3 0 12 -13 21 -30z m-2845 -15 c-13 -14 -26 -23 -28 -20 -3 3 5 16 18
30 13 14 26 23 28 20 3 -3 -5 -16 -18 -30z m-796 9 c3 -8 2 -12 -4 -9 -6 3
-10 10 -10 16 0 14 7 11 14 -7z m2826 -19 c0 -5 -5 -3 -10 5 -5 8 -10 20 -10
25 0 6 5 3 10 -5 5 -8 10 -19 10 -25z m-3261 -24 c-6 -18 -13 -30 -15 -28 -2
2 1 18 7 36 6 18 13 30 15 28 2 -2 -1 -18 -7 -36z m741 35 c0 -2 -13 -9 -30
-15 -35 -12 -41 -5 -7 9 25 10 37 12 37 6z m860 -10 c0 -3 -4 -8 -10 -11 -5
-3 -10 -1 -10 4 0 6 5 11 10 11 6 0 10 -2 10 -4z m2883 -11 c-3 -9 -8 -14 -10
-11 -3 3 -2 9 2 15 9 16 15 13 8 -4z m-4014 -34 c-6 -18 -13 -30 -15 -28 -2 2
1 18 7 36 6 18 13 30 15 28 2 -2 -1 -18 -7 -36z m646 19 c-14 -15 -15 -20 -4
-20 8 0 0 -9 -17 -19 -18 -11 -33 -24 -35 -30 -5 -15 -45 -22 -72 -12 -19 7
-18 9 16 20 24 8 35 17 30 24 -5 8 -2 8 9 0 17 -15 29 -7 21 13 -3 8 0 15 6
15 6 1 15 2 21 3 5 0 15 7 22 14 20 20 23 14 3 -8z m745 16 c0 -2 -7 -7 -16
-10 -8 -3 -12 -2 -9 4 6 10 25 14 25 6z m-1615 -26 c-10 -11 -21 -18 -23 -15
-3 3 3 12 14 20 27 20 30 18 9 -5z m3122 -12 c-3 -7 -5 -2 -5 12 0 14 2 19 5
13 2 -7 2 -19 0 -25z m-2812 13 c-9 -8 -36 -10 -30 -2 2 4 11 8 20 8 8 0 13
-3 10 -6z m-527 -15 c-7 -8 -15 -12 -17 -11 -5 6 10 25 20 25 5 0 4 -6 -3 -14z
m75 -6 c-3 -11 -9 -20 -13 -20 -5 0 -6 9 -3 20 3 11 9 20 13 20 5 0 6 -9 3
-20z m1461 5 c-4 -8 -8 -15 -10 -15 -2 0 -4 7 -4 15 0 8 4 15 10 15 5 0 7 -7
4 -15z m246 1 c0 -2 -8 -10 -17 -17 -16 -13 -17 -12 -4 4 13 16 21 21 21 13z
m-1660 -16 c0 -5 -2 -10 -4 -10 -3 0 -8 5 -11 10 -3 6 -1 10 4 10 6 0 11 -4
11 -10z m40 -10 c-33 -26 -49 -26 -19 0 13 10 29 19 34 19 6 1 -1 -8 -15 -19z
m384 7 c-12 -6 -46 -25 -75 -40 l-54 -28 30 28 c16 15 33 27 38 25 4 -1 18 4
30 13 12 8 28 15 37 15 10 0 8 -4 -6 -13z m61 -16 c-8 -17 -21 -33 -27 -37 -8
-5 -7 1 3 16 8 14 19 31 23 38 15 25 16 11 1 -17z m3541 -76 c26 -50 43 -85
37 -80 -6 6 -32 50 -58 100 -26 50 -43 86 -38 80 6 -5 32 -50 59 -100z m-4114
78 c-10 -4 -10 -8 -1 -19 6 -8 16 -11 22 -7 5 3 7 1 3 -5 -3 -5 0 -13 6 -15 8
-4 7 -6 -4 -6 -9 -1 -24 9 -32 21 -13 19 -17 20 -33 7 -10 -8 -21 -18 -25 -24
-4 -5 -8 -6 -8 -1 0 5 -7 3 -15 -4 -10 -9 -19 -10 -25 -4 -7 7 13 21 52 41 35
17 65 29 68 26 3 -3 -1 -8 -8 -10z m368 13 c0 -3 -4 -8 -10 -11 -5 -3 -10 -1
-10 4 0 6 5 11 10 11 6 0 10 -2 10 -4z m1171 -23 c-8 -15 -10 -15 -11 -2 0 17
10 32 18 25 2 -3 -1 -13 -7 -23z m2109 17 c-8 -5 -19 -10 -25 -10 -5 0 -3 5 5
10 8 5 20 10 25 10 6 0 3 -5 -5 -10z m725 -30 c-9 -16 -18 -30 -21 -30 -2 0 2
14 11 30 9 17 18 30 21 30 2 0 -2 -13 -11 -30z m-2895 17 c0 -2 -10 -12 -21
-23 -22 -19 -22 -19 -10 4 10 18 31 31 31 19z m230 -1 c0 -2 -8 -10 -17 -17
-16 -13 -17 -12 -4 4 13 16 21 21 21 13z m675 -15 c-9 -8 -39 -20 -90 -35 -11
-4 3 5 30 18 52 26 76 33 60 17z m-1515 -10 c-26 -15 -66 -24 -55 -13 6 5 19
12 30 15 32 8 41 7 25 -2z m168 -38 c-6 -7 -16 -13 -23 -13 -7 0 -18 -7 -25
-15 -10 -12 -8 -16 11 -24 16 -6 18 -10 8 -10 -9 -1 -32 -4 -50 -7 l-34 -7 34
37 c22 22 29 36 20 36 -7 0 2 8 21 18 36 18 58 9 38 -15z m34 15 c-7 -7 -12
-8 -12 -2 0 14 12 26 19 19 2 -3 -1 -11 -7 -17z m1735 15 c-7 -7 -149 -4 -156
3 -2 2 33 4 79 4 46 0 80 -3 77 -7z m1690 -23 c-5 -34 -17 -35 -17 -1 0 19 4
30 10 26 5 -3 8 -15 7 -25z m-4150 -8 c-10 -10 -17 -26 -17 -34 0 -9 -7 -22
-16 -29 -15 -12 -16 -11 -10 9 8 25 4 26 -27 12 -18 -9 -18 -7 3 7 13 10 36
28 50 40 29 25 41 22 17 -5z m2556 21 c-7 -2 -19 -2 -25 0 -7 3 -2 5 12 5 14
0 19 -2 13 -5z m946 -37 c-2 -29 -3 -33 -6 -14 -2 15 -13 34 -24 42 -19 13
-19 14 6 14 23 0 25 -4 24 -42z m-3075 -7 l-29 -31 30 6 c27 6 28 5 7 -4 -13
-5 -28 -8 -32 -5 -5 3 -11 1 -15 -5 -3 -5 -11 -10 -18 -10 -6 0 9 20 33 45 24
24 46 42 49 40 2 -3 -9 -19 -25 -36z m1496 27 c0 -7 -121 -49 -126 -43 -3 3
21 14 53 25 61 21 73 24 73 18z m100 -6 c-8 -5 -19 -10 -25 -10 -5 0 -3 5 5
10 8 5 20 10 25 10 6 0 3 -5 -5 -10z m1667 -42 c-3 -7 -5 -2 -5 12 0 14 2 19
5 13 2 -7 2 -19 0 -25z m-1042 12 c3 -5 1 -10 -4 -10 -6 0 -11 5 -11 10 0 6 2
10 4 10 3 0 8 -4 11 -10z m-2445 -14 c0 -3 -4 -8 -10 -11 -5 -3 -10 -1 -10 4
0 6 5 11 10 11 6 0 10 -2 10 -4z m1565 -6 c-3 -5 -12 -10 -18 -10 -7 0 -6 4 3
10 19 12 23 12 15 0z m2372 -22 c-3 -7 -5 -2 -5 12 0 14 2 19 5 13 2 -7 2 -19
0 -25z m-981 -14 c2 -23 1 -24 -11 -7 -10 13 -10 20 -2 25 7 4 12 8 12 8 0 0
1 -11 1 -26z m-2561 -4 c3 -6 -1 -17 -9 -26 -9 -9 -16 -11 -16 -4 0 6 -5 8
-11 4 -8 -4 -8 0 0 15 13 23 26 27 36 11z m3039 -5 c3 -8 1 -15 -4 -15 -6 0
-10 7 -10 15 0 8 2 15 4 15 2 0 6 -7 10 -15z m531 -15 c3 -5 1 -10 -4 -10 -6
0 -11 5 -11 10 0 6 2 10 4 10 3 0 8 -4 11 -10z"/>
<path d="M4711 1088 c-11 -18 -11 -20 3 -15 21 8 21 -11 -1 -35 -30 -33 -9
-26 27 9 19 19 31 33 25 32 -22 -3 -36 1 -30 10 3 5 2 12 -3 15 -4 2 -14 -5
-21 -16z"/>
<path d="M4735 969 c-4 -6 -5 -12 -2 -15 2 -3 7 2 10 11 7 17 1 20 -8 4z"/>
<path d="M4211 1022 c-17 -31 -13 -40 5 -14 9 13 14 26 11 29 -3 2 -10 -4 -16
-15z"/>
<path d="M4350 1020 c-18 -12 -2 -12 25 0 13 6 15 9 5 9 -8 0 -22 -4 -30 -9z"/>
<path d="M4553 990 c-13 -5 -23 -11 -23 -14 0 -8 30 0 42 12 14 14 11 14 -19
2z"/>
<path d="M4420 979 c0 -5 5 -7 10 -4 6 3 10 8 10 11 0 2 -4 4 -10 4 -5 0 -10
-5 -10 -11z"/>
<path d="M3886 915 c-11 -8 -17 -17 -14 -20 2 -3 13 4 23 15 21 23 18 25 -9 5z"/>
<path d="M1106 203 c-6 -14 -5 -15 5 -6 7 7 10 15 7 18 -3 3 -9 -2 -12 -12z"/>
<path d="M1930 1710 c0 -5 5 -10 10 -10 6 0 10 5 10 10 0 6 -4 10 -10 10 -5 0
-10 -4 -10 -10z"/>
<path d="M2190 1710 c0 -5 5 -10 10 -10 6 0 10 5 10 10 0 6 -4 10 -10 10 -5 0
-10 -4 -10 -10z"/>
<path d="M2100 1689 c0 -5 5 -7 10 -4 6 3 10 8 10 11 0 2 -4 4 -10 4 -5 0 -10
-5 -10 -11z"/>
<path d="M1768 1673 c7 -3 16 -2 19 1 4 3 -2 6 -13 5 -11 0 -14 -3 -6 -6z"/>
<path d="M1825 1650 c25 -11 78 -13 71 -2 -2 4 -24 9 -48 10 -32 1 -38 -1 -23
-8z"/>
<path d="M1790 1628 c-24 -10 -22 -12 24 -19 28 -4 57 -4 65 1 13 8 11 10 -9
11 -14 1 -28 1 -32 0 -5 0 -8 4 -8 9 0 12 -8 12 -40 -2z"/>
<path d="M2325 1630 c-3 -5 -1 -10 4 -10 6 0 11 5 11 10 0 6 -2 10 -4 10 -3 0
-8 -4 -11 -10z"/>
<path d="M4230 1620 c0 -6 7 -10 15 -10 8 0 15 2 15 4 0 2 -7 6 -15 10 -8 3
-15 1 -15 -4z"/>
<path d="M3950 1600 c14 -4 36 -8 50 -8 23 -1 23 0 5 8 -11 5 -33 8 -50 8 -29
0 -29 0 -5 -8z"/>
<path d="M1990 1593 c0 -7 -7 -13 -15 -13 -27 0 -15 -18 15 -22 17 -3 30 -1
30 4 0 4 0 10 0 13 0 3 -3 5 -6 4 -4 0 -11 5 -15 13 -7 10 -9 10 -9 1z"/>
<path d="M2478 1573 c6 -2 18 -2 25 0 6 3 1 5 -13 5 -14 0 -19 -2 -12 -5z"/>
<path d="M2074 1546 c-6 -7 -25 -11 -41 -10 -17 1 -30 -3 -30 -10 0 -12 67
-14 86 -2 6 4 11 2 11 -4 0 -6 5 -8 10 -5 15 9 12 25 -4 25 -8 0 -16 4 -18 9
-1 5 -8 4 -14 -3z"/>
<path d="M2209 1545 c-3 -2 -16 -6 -30 -9 -13 -2 -23 -9 -21 -15 1 -6 -3 -11
-10 -11 -9 0 -9 -3 -1 -11 13 -13 33 -4 33 17 0 8 5 14 10 14 14 0 13 -2 -15
-40 -29 -40 -34 -66 -5 -30 23 29 52 82 47 87 -2 1 -6 1 -8 -2z"/>
<path d="M4504 1541 c3 -5 15 -7 26 -4 28 7 25 13 -6 13 -14 0 -23 -4 -20 -9z"/>
<path d="M2335 1530 c-3 -5 1 -10 9 -10 9 0 16 5 16 10 0 6 -4 10 -9 10 -6 0
-13 -4 -16 -10z"/>
<path d="M4580 1530 c0 -5 5 -10 10 -10 6 0 10 5 10 10 0 6 -4 10 -10 10 -5 0
-10 -4 -10 -10z"/>
<path d="M4645 1520 c3 -5 15 -10 26 -10 10 0 19 5 19 10 0 6 -12 10 -26 10
-14 0 -23 -4 -19 -10z"/>
<path d="M2225 1500 c-3 -6 1 -7 9 -4 18 7 21 14 7 14 -6 0 -13 -4 -16 -10z"/>
<path d="M2260 1506 c0 -2 7 -6 15 -10 8 -3 15 -1 15 4 0 6 -7 10 -15 10 -8 0
-15 -2 -15 -4z"/>
<path d="M4725 1500 c-3 -5 -2 -10 4 -10 5 0 16 -3 25 -6 11 -4 16 -1 16 10 0
18 -35 22 -45 6z"/>
<path d="M4795 1499 c-4 -6 -5 -13 -2 -16 7 -7 27 6 27 18 0 12 -17 12 -25 -2z"/>
<path d="M4827 1486 c-3 -8 2 -16 13 -19 18 -5 35 15 23 27 -11 11 -31 6 -36
-8z"/>
<path d="M65 1465 c-34 -28 -18 -34 34 -12 24 10 28 16 19 25 -16 16 -18 16
-53 -13z"/>
<path d="M2133 1475 c0 -8 4 -12 9 -9 5 3 6 10 3 15 -9 13 -12 11 -12 -6z"/>
<path d="M2301 1481 c-9 -5 -11 -16 -7 -27 6 -16 8 -16 16 -4 8 13 13 13 31 2
12 -8 18 -9 14 -2 -4 7 2 9 19 6 32 -6 35 10 4 17 -13 3 -32 8 -43 11 -11 4
-26 2 -34 -3z"/>
<path d="M1910 1466 c0 -7 -18 -36 -40 -64 -42 -53 -51 -73 -22 -51 15 13 16
12 3 -3 -7 -10 -16 -16 -20 -14 -4 3 -12 -4 -19 -14 -9 -14 -8 -19 2 -23 23
-9 150 34 168 57 15 18 18 19 18 4 0 -14 5 -16 23 -9 12 5 21 14 20 20 -2 6 4
8 12 5 11 -5 13 -2 9 11 -4 10 -14 15 -25 12 -10 -3 -20 0 -22 7 -3 8 -8 8
-18 0 -24 -18 -49 -24 -46 -11 1 7 -4 11 -12 9 -12 -3 -12 0 -2 12 14 16 6 40
-10 31 -5 -4 -9 -1 -9 4 0 6 5 11 10 11 6 0 10 5 10 10 0 6 -7 10 -15 10 -8 0
-15 -6 -15 -14z"/>
<path d="M2211 1458 c-12 -19 -11 -20 13 -14 14 3 26 2 26 -3 0 -5 7 -11 15
-15 11 -4 14 1 13 19 -1 14 -7 25 -13 26 -5 0 -17 2 -26 4 -8 1 -21 -6 -28
-17z"/>
<path d="M2520 1454 c0 -8 5 -12 10 -9 6 4 8 11 5 16 -9 14 -15 11 -15 -7z"/>
<path d="M4925 1460 c3 -5 8 -10 11 -10 2 0 4 5 4 10 0 6 -5 10 -11 10 -5 0
-7 -4 -4 -10z"/>
<path d="M4980 1459 c0 -5 5 -7 10 -4 6 3 10 8 10 11 0 2 -4 4 -10 4 -5 0 -10
-5 -10 -11z"/>
<path d="M437 1454 c-4 -4 -7 -14 -7 -23 0 -11 3 -12 11 -4 6 6 10 16 7 23 -2
6 -7 8 -11 4z"/>
<path d="M3270 1456 c0 -2 7 -7 16 -10 8 -3 12 -2 9 4 -6 10 -25 14 -25 6z"/>
<path d="M2546 1435 c-3 -8 -1 -15 4 -15 6 0 10 7 10 15 0 8 -2 15 -4 15 -2 0
-6 -7 -10 -15z"/>
<path d="M3320 1442 c0 -13 47 -28 57 -18 4 3 -3 6 -13 6 -11 0 -25 5 -32 12
-9 9 -12 9 -12 0z"/>
<path d="M383 1423 c-3 -10 -8 -22 -11 -27 -3 -5 0 -6 5 -3 11 7 25 47 17 47
-3 0 -7 -8 -11 -17z"/>
<path d="M4870 1430 c0 -5 5 -10 10 -10 6 0 10 5 10 10 0 6 -4 10 -10 10 -5 0
-10 -4 -10 -10z"/>
<path d="M150 1405 c-17 -21 -8 -28 15 -11 11 8 14 15 8 19 -6 4 -16 0 -23 -8z"/>
<path d="M2195 1410 c4 -6 11 -8 16 -5 14 9 11 15 -7 15 -8 0 -12 -5 -9 -10z"/>
<path d="M2330 1411 c-15 -6 -27 -41 -15 -41 11 0 37 30 33 39 -2 4 -10 6 -18
2z"/>
<path d="M3400 1410 c0 -5 7 -10 16 -10 8 0 12 5 9 10 -3 6 -10 10 -16 10 -5
0 -9 -4 -9 -10z"/>
<path d="M2370 1395 c-7 -8 -8 -15 -2 -15 5 0 12 -13 15 -28 5 -22 12 -28 36
-30 22 -2 33 3 41 18 8 14 17 19 33 15 16 -4 26 1 35 16 12 19 12 21 -2 16 -9
-4 -16 -1 -16 6 0 7 -3 8 -8 2 -12 -17 -92 -17 -98 0 -8 19 -18 19 -34 0z"/>
<path d="M320 1385 c-8 -9 -8 -15 -2 -15 12 0 26 19 19 26 -2 2 -10 -2 -17
-11z"/>
<path d="M2593 1379 c-18 -12 -33 -22 -33 -23 0 -2 14 0 31 2 22 3 27 7 18 13
-10 6 -8 9 9 9 12 0 22 5 22 10 0 15 -11 12 -47 -11z"/>
<path d="M2250 1382 c0 -4 9 -8 19 -8 11 0 17 4 15 8 -3 4 -12 8 -20 8 -8 0
-14 -4 -14 -8z"/>
<path d="M2350 1360 c0 -5 5 -10 10 -10 6 0 10 5 10 10 0 6 -4 10 -10 10 -5 0
-10 -4 -10 -10z"/>
<path d="M3538 1363 c7 -3 16 -2 19 1 4 3 -2 6 -13 5 -11 0 -14 -3 -6 -6z"/>
<path d="M2780 1333 c0 -13 5 -23 11 -23 6 0 9 7 6 15 -8 20 11 29 29 14 12
-10 13 -9 8 4 -3 10 -16 16 -30 15 -18 -2 -24 -8 -24 -25z"/>
<path d="M3060 1350 c19 -13 30 -13 30 0 0 6 -10 10 -22 10 -19 0 -20 -2 -8
-10z"/>
<path d="M2720 1341 c0 -5 7 -11 15 -15 8 -3 15 -1 15 3 0 5 -7 11 -15 15 -8
3 -15 1 -15 -3z"/>
<path d="M3680 1325 c0 -8 2 -15 4 -15 2 0 6 7 10 15 3 8 1 15 -4 15 -6 0 -10
-7 -10 -15z"/>
<path d="M2082 1323 c1 -5 -14 -26 -35 -47 -44 -46 -47 -59 -9 -50 38 9 62 23
62 35 0 7 11 9 28 5 17 -4 22 -3 14 2 -11 8 -11 10 2 15 20 8 21 27 1 27 -8 0
-15 -4 -15 -9 0 -5 -7 -12 -16 -15 -13 -5 -15 -1 -12 19 4 17 1 25 -8 25 -8 0
-13 -3 -12 -7z"/>
<path d="M3100 1303 c0 -13 3 -14 12 -5 7 7 21 12 31 12 15 0 17 -3 8 -14 -9
-11 -8 -15 5 -20 9 -3 20 -4 24 -1 5 3 11 1 15 -5 3 -5 14 -10 23 -10 10 1 3
9 -18 20 -19 11 -29 19 -22 20 7 0 10 5 7 10 -3 6 -24 10 -46 10 -30 0 -39 -4
-39 -17z"/>
<path d="M4266 1303 c-6 -14 -5 -15 5 -6 7 7 10 15 7 18 -3 3 -9 -2 -12 -12z"/>
<path d="M2193 1303 c4 -3 1 -13 -5 -22 -8 -10 -4 -9 10 3 26 23 27 26 5 26
-9 0 -13 -3 -10 -7z"/>
<path d="M2523 1303 c-27 -5 -28 -11 -7 -38 15 -19 15 -19 12 -1 -2 10 3 21
10 23 6 3 12 -2 12 -11 0 -9 8 -16 18 -16 9 -1 28 -7 41 -14 20 -11 27 -11 38
-1 17 18 16 25 -3 25 -9 0 -12 -5 -8 -12 5 -8 2 -9 -10 -5 -10 4 -23 7 -29 7
-7 0 -4 5 6 11 17 10 17 12 -8 25 -28 14 -32 15 -72 7z"/>
<path d="M3750 1300 c-9 -6 -10 -10 -3 -10 6 0 15 5 18 10 8 12 4 12 -15 0z"/>
<path d="M3950 1276 l0 -37 -30 16 c-25 13 -29 13 -24 1 3 -8 15 -16 27 -18
13 -2 23 -13 27 -27 5 -21 7 -22 19 -7 7 9 9 16 4 16 -12 0 -12 52 0 61 4 3 1
12 -8 19 -13 11 -15 8 -15 -24z"/>
<path d="M2955 1289 c-11 -17 1 -21 15 -4 8 9 8 15 2 15 -6 0 -14 -5 -17 -11z"/>
<path d="M3535 1286 c11 -8 25 -12 32 -9 20 8 4 23 -25 23 -24 0 -25 -1 -7
-14z"/>
<path d="M3790 1290 c-9 -6 -10 -10 -3 -10 6 0 15 5 18 10 8 12 4 12 -15 0z"/>
<path d="M4035 1289 c-9 -14 -2 -20 14 -10 8 6 9 11 3 15 -6 3 -14 1 -17 -5z"/>
<path d="M3825 1281 c-3 -6 4 -15 15 -21 20 -11 21 -10 10 9 -12 23 -16 25
-25 12z"/>
<path d="M4320 1280 c0 -5 5 -10 11 -10 5 0 7 5 4 10 -3 6 -8 10 -11 10 -2 0
-4 -4 -4 -10z"/>
<path d="M2700 1271 c0 -6 4 -13 10 -16 6 -3 7 1 4 9 -7 18 -14 21 -14 7z"/>
<path d="M2910 1269 c0 -5 -4 -8 -8 -5 -12 7 -52 -22 -52 -39 0 -8 -7 -11 -20
-8 -11 3 -17 10 -13 17 4 6 0 5 -9 -2 -14 -11 -18 -10 -27 5 -10 17 -10 17
-11 1 0 -13 -8 -18 -30 -18 -25 0 -32 -6 -52 -50 -21 -46 -24 -48 -40 -33 -17
15 -20 15 -41 -5 -13 -12 -28 -22 -34 -22 -11 0 -43 -32 -43 -43 0 -4 12 -2
27 4 l27 10 -19 -22 c-20 -22 -20 -22 3 -17 17 5 22 2 22 -14 0 -16 3 -18 13
-9 8 6 18 7 22 3 5 -4 5 -2 2 4 -4 7 0 17 8 24 10 9 15 9 15 1 0 -14 27 -15
35 -1 12 19 -16 40 -44 34 -25 -5 -25 -5 -7 10 14 11 24 13 37 5 13 -6 19 -6
19 0 0 6 8 7 17 4 13 -5 15 -2 10 11 -4 10 -7 19 -7 22 0 2 -7 1 -17 -3 -13
-5 -12 2 8 36 13 23 25 37 27 31 3 -7 9 -7 20 2 13 11 14 10 4 -9 -7 -12 -9
-29 -6 -37 3 -9 -1 -34 -10 -56 -13 -34 -13 -38 -1 -34 8 4 15 3 15 -1 0 -10
-27 -35 -39 -35 -6 0 -11 -8 -11 -17 0 -14 2 -15 9 -4 7 11 9 11 14 0 4 -10 6
-9 6 4 1 9 7 17 15 17 18 0 28 40 14 57 -10 12 -4 17 15 14 4 0 7 11 8 27 0
23 1 24 8 7 5 -12 3 -39 -5 -65 -15 -48 -12 -63 6 -31 6 12 17 21 25 21 7 0
17 10 21 23 3 12 13 30 21 39 8 9 12 21 8 27 -3 6 -1 19 4 28 10 17 10 17 11
1 0 -12 8 -18 22 -18 12 0 31 8 42 18 16 13 18 13 8 1 -6 -9 -9 -19 -5 -22 3
-4 -11 -7 -33 -7 l-39 -1 30 -13 c19 -8 25 -15 17 -20 -7 -4 -16 -4 -22 -1 -5
3 -10 -3 -10 -13 0 -11 -9 -30 -21 -43 -17 -21 -19 -21 -10 -3 8 16 7 21 -5
21 -7 0 -14 -6 -14 -14 0 -7 -6 -13 -14 -13 -8 0 -22 -10 -31 -22 -15 -22 -15
-23 17 -29 33 -6 33 -6 -8 -8 -22 0 -45 -6 -52 -13 -9 -9 -12 -9 -12 0 0 10
-3 10 -13 0 -8 -7 -12 -22 -10 -33 3 -20 3 -20 -5 0 -5 11 -7 26 -5 33 3 6 1
12 -5 12 -5 0 -14 -6 -19 -12 -12 -15 -37 -88 -31 -93 4 -4 281 105 293 116 5
5 19 9 32 9 14 0 23 6 23 16 0 9 9 18 20 21 11 3 20 9 20 14 0 13 -14 11 -28
-3 -7 -7 -12 -9 -12 -5 0 3 -11 2 -24 -3 -20 -7 -24 -6 -22 8 2 9 12 17 22 17
16 0 18 7 16 35 -1 19 -8 37 -14 42 -9 5 -6 9 7 14 38 14 46 41 13 46 -18 2
-23 9 -21 28 1 14 0 20 -3 14 -7 -17 -56 -4 -50 12 3 8 1 14 -4 14 -6 0 -10
-5 -10 -11z m-19 -46 c-10 -17 -10 -16 -11 3 0 23 13 41 18 25 2 -6 -1 -18 -7
-28z m-11 -222 c0 -5 -7 -12 -16 -15 -14 -5 -15 -4 -4 9 14 17 20 19 20 6z
m-143 -63 c-3 -8 -6 -5 -6 6 -1 11 2 17 5 13 3 -3 4 -12 1 -19z m-56 -11 c-10
-9 -11 -8 -5 6 3 10 9 15 12 12 3 -3 0 -11 -7 -18z"/>
<path d="M4350 1270 c0 -5 5 -10 10 -10 6 0 10 5 10 10 0 6 -4 10 -10 10 -5 0
-10 -4 -10 -10z"/>
<path d="M2679 1259 c-1 -8 -1 -17 0 -21 0 -5 -6 -8 -15 -8 -8 0 -12 -4 -9
-10 3 -5 15 -10 26 -10 15 0 18 5 15 26 -6 31 -15 44 -17 23z"/>
<path d="M3980 1250 c0 -5 5 -10 11 -10 5 0 7 5 4 10 -3 6 -8 10 -11 10 -2 0
-4 -4 -4 -10z"/>
<path d="M2995 1240 c-3 -5 -1 -10 4 -10 6 0 11 5 11 10 0 6 -2 10 -4 10 -3 0
-8 -4 -11 -10z"/>
<path d="M2220 1230 c0 -5 7 -7 15 -4 8 4 15 8 15 10 0 2 -7 4 -15 4 -8 0 -15
-4 -15 -10z"/>
<path d="M2281 1224 c0 -11 3 -14 6 -6 3 7 2 16 -1 19 -3 4 -6 -2 -5 -13z"/>
<path d="M3515 1230 c-4 -6 5 -10 20 -10 15 0 24 4 20 10 -3 6 -12 10 -20 10
-8 0 -17 -4 -20 -10z"/>
<path d="M3156 1215 c4 -8 8 -15 10 -15 2 0 4 7 4 15 0 8 -4 15 -10 15 -5 0
-7 -7 -4 -15z"/>
<path d="M3029 1181 c-38 -39 -39 -66 -1 -57 l27 7 -22 -16 c-13 -9 -23 -23
-23 -31 0 -25 39 3 46 34 8 32 32 62 49 62 7 0 15 7 19 15 4 12 -3 15 -30 15
-26 0 -43 -8 -65 -29z"/>
<path d="M3410 1200 c0 -5 9 -10 21 -10 11 0 17 5 14 10 -3 6 -13 10 -21 10
-8 0 -14 -4 -14 -10z"/>
<path d="M4005 1200 c-3 -5 1 -10 9 -10 9 0 16 5 16 10 0 6 -4 10 -9 10 -6 0
-13 -4 -16 -10z"/>
<path d="M3514 1191 c6 -9 -16 -21 -37 -21 -7 0 -6 5 3 11 13 9 13 10 0 6 -8
-2 -17 -12 -18 -22 -3 -15 1 -17 23 -11 15 4 34 13 41 21 11 11 11 14 -2 19
-8 3 -13 2 -10 -3z"/>
<path d="M2170 1180 c0 -5 5 -10 10 -10 6 0 10 5 10 10 0 6 -4 10 -10 10 -5 0
-10 -4 -10 -10z"/>
<path d="M3154 1173 c-2 -7 -6 -19 -8 -27 -5 -16 31 -29 40 -14 3 5 3 12 0 15
-3 4 -6 1 -6 -6 0 -7 -4 -9 -10 -6 -17 11 -11 24 18 39 l27 14 -29 -1 c-16 -1
-30 -8 -32 -14z"/>
<path d="M4255 1180 c-3 -5 -1 -10 4 -10 6 0 11 5 11 10 0 6 -2 10 -4 10 -3 0
-8 -4 -11 -10z"/>
<path d="M3550 1170 c-17 -11 10 -19 34 -10 19 6 19 7 -1 12 -11 3 -26 2 -33
-2z"/>
<path d="M3952 1150 c0 -19 2 -27 5 -17 2 9 2 25 0 35 -3 9 -5 1 -5 -18z"/>
<path d="M4125 1170 c3 -5 8 -10 11 -10 2 0 4 5 4 10 0 6 -5 10 -11 10 -5 0
-7 -4 -4 -10z"/>
<path d="M2650 1154 c0 -8 5 -12 10 -9 6 4 8 11 5 16 -9 14 -15 11 -15 -7z"/>
<path d="M2159 1155 c-8 -50 -6 -57 8 -42 12 11 13 19 4 33 -6 11 -11 15 -12
9z"/>
<path d="M4158 1153 c7 -3 16 -2 19 1 4 3 -2 6 -13 5 -11 0 -14 -3 -6 -6z"/>
<path d="M2720 1134 c0 -8 5 -12 10 -9 6 3 10 10 10 16 0 5 -4 9 -10 9 -5 0
-10 -7 -10 -16z"/>
<path d="M3090 1125 c-13 -14 -21 -27 -18 -30 2 -3 14 9 27 25 26 37 23 39 -9
5z"/>
<path d="M4232 1136 c7 -8 15 -12 17 -11 5 6 -10 25 -20 25 -5 0 -4 -6 3 -14z"/>
<path d="M4291 1136 c-9 -11 -8 -15 5 -20 9 -4 19 -4 22 -1 3 3 0 5 -8 5 -10
0 -10 3 0 15 7 8 8 15 2 15 -5 0 -15 -6 -21 -14z"/>
<path d="M3301 1135 c0 -5 4 -19 9 -30 8 -18 9 -18 9 -2 1 11 6 15 13 11 7 -4
8 -3 4 5 -4 6 -11 9 -16 6 -4 -3 -11 1 -13 7 -3 7 -5 9 -6 3z"/>
<path d="M2101 1104 c-11 -14 -17 -33 -14 -42 5 -14 3 -13 -9 2 -17 21 -40 14
-31 -9 3 -10 1 -13 -9 -10 -8 3 -25 -2 -37 -12 l-22 -18 36 -3 c30 -2 38 2 42
18 3 11 10 20 15 20 5 0 6 -6 2 -12 -4 -7 6 -2 22 12 16 14 30 25 31 25 1 0 4
12 8 28 9 35 -7 35 -34 1z"/>
<path d="M3206 1115 c-11 -8 -16 -15 -10 -15 5 0 18 7 28 15 11 8 16 15 10 15
-5 0 -18 -7 -28 -15z"/>
<path d="M3755 1120 c-3 -5 3 -10 14 -10 12 0 21 5 21 10 0 6 -6 10 -14 10 -8
0 -18 -4 -21 -10z"/>
<path d="M2055 1110 c-3 -5 -1 -10 4 -10 6 0 11 5 11 10 0 6 -2 10 -4 10 -3 0
-8 -4 -11 -10z"/>
<path d="M2200 1103 c-11 -8 -18 -19 -14 -24 7 -13 29 -6 30 9 3 25 5 27 14
12 7 -11 12 -12 20 -4 18 18 -25 24 -50 7z"/>
<path d="M2269 1091 c-16 -22 -25 -28 -31 -19 -6 10 -10 10 -17 -2 -5 -8 -8
-17 -5 -21 2 -4 -3 -9 -11 -12 -9 -4 -12 -1 -8 9 3 7 0 14 -6 14 -6 0 -11 -6
-12 -12 0 -7 -4 -5 -7 5 -7 16 -9 16 -30 1 -12 -8 -20 -20 -17 -25 8 -12 112
-12 120 1 4 6 11 8 16 4 5 -3 8 -2 7 3 -1 4 6 23 16 41 23 44 14 52 -15 13z"/>
<path d="M153 1098 c-29 -5 -53 -14 -53 -18 0 -5 -7 -7 -15 -4 -8 4 -15 2 -15
-4 0 -17 32 -23 67 -11 18 6 33 15 33 20 0 6 4 8 9 5 5 -3 22 1 37 9 34 17 19
18 -63 3z"/>
<path d="M2865 1100 c-3 -5 -1 -10 4 -10 6 0 11 5 11 10 0 6 -2 10 -4 10 -3 0
-8 -4 -11 -10z"/>
<path d="M3106 1095 c4 -10 0 -15 -11 -15 -9 0 -14 -4 -11 -9 9 -14 -5 -42
-18 -38 -16 6 -35 -24 -36 -56 l0 -28 23 21 c13 13 31 20 44 17 13 -2 24 2 28
11 4 10 0 13 -14 9 -11 -3 -18 0 -16 7 10 38 19 55 31 60 11 4 11 1 -2 -18
-10 -16 -12 -26 -5 -31 7 -3 11 3 11 14 0 12 4 21 9 21 5 0 9 12 9 26 0 16 -3
21 -8 14 -5 -9 -9 -9 -14 -1 -11 16 -26 13 -20 -4z"/>
<path d="M2346 1088 c3 -5 10 -6 15 -3 13 9 11 12 -6 12 -8 0 -12 -4 -9 -9z"/>
<path d="M3226 1084 c-8 -21 -8 -26 3 -20 5 3 12 -1 15 -10 5 -13 9 -14 21 -4
13 11 12 15 -6 31 -27 23 -25 23 -33 3z"/>
<path d="M2384 1076 c-10 -8 -16 -17 -13 -20 3 -3 14 3 24 14 21 23 17 26 -11
6z"/>
<path d="M3161 1074 c0 -11 3 -14 6 -6 3 7 2 16 -1 19 -3 4 -6 -2 -5 -13z"/>
<path d="M36 1065 c-3 -8 -12 -12 -21 -9 -11 5 -15 -1 -15 -24 0 -30 1 -31 30
-20 34 11 45 24 31 33 -6 3 -8 12 -4 20 3 8 1 15 -5 15 -5 0 -12 -7 -16 -15z"/>
<path d="M2305 1060 c-3 -5 0 -10 7 -10 9 0 9 -3 -2 -10 -8 -5 -10 -10 -5 -10
12 1 45 25 45 34 0 10 -38 7 -45 -4z"/>
<path d="M2475 1061 c-3 -6 -10 -9 -15 -6 -5 3 -11 2 -14 -3 -2 -4 4 -8 14 -9
19 -2 37 14 27 23 -3 3 -8 0 -12 -5z"/>
<path d="M109 1023 c-1 -5 -1 -11 0 -15 0 -4 -5 -5 -13 -2 -8 3 -32 -4 -55
-16 -41 -20 -41 -20 -40 -78 1 -55 1 -56 13 -28 11 25 14 26 18 9 4 -16 12
-18 47 -15 31 3 41 8 37 18 -7 18 2 18 19 0 12 -12 6 -16 -38 -29 -29 -9 -61
-17 -71 -19 -13 -2 -21 -13 -23 -32 -3 -20 0 -27 9 -24 7 3 116 34 241 69 164
46 222 66 205 70 -41 12 -58 9 -78 -11 -26 -26 -38 -26 -15 0 24 26 9 43 -40
44 -19 1 -35 6 -36 11 0 6 -4 1 -9 -10 -8 -19 -9 -19 -9 -1 -1 19 -1 19 -14 1
-13 -17 -14 -17 -13 5 1 18 -7 25 -43 36 -25 7 -48 11 -53 8 -4 -3 -8 0 -8 5
0 12 -29 15 -31 4z m-58 -60 c-12 -20 -14 -14 -5 12 4 9 9 14 11 11 3 -2 0
-13 -6 -23z m290 -36 c-10 -9 -11 -8 -5 6 3 10 9 15 12 12 3 -3 0 -11 -7 -18z
m-105 -11 c-1 -20 -7 -25 -38 -28 -20 -2 -34 0 -32 4 3 5 16 8 30 8 21 0 29 9
25 33 0 4 3 7 8 7 5 0 8 -11 7 -24z m54 10 c0 -2 -8 -10 -17 -17 -16 -13 -17
-12 -4 4 13 16 21 21 21 13z"/>
<path d="M2525 1022 c-3 -3 -5 -10 -5 -16 0 -6 4 -6 12 2 9 9 14 7 23 -5 11
-14 12 -14 17 4 4 16 1 21 -18 21 -13 0 -26 -3 -29 -6z"/>
<path d="M3240 1010 c0 -6 5 -8 10 -5 6 3 10 1 10 -4 0 -6 -4 -11 -10 -11 -5
0 -10 -12 -10 -27 0 -35 18 -18 22 21 2 17 -2 31 -9 33 -7 3 -13 0 -13 -7z"/>
<path d="M3714 1005 c-10 -8 -14 -15 -8 -15 6 0 17 7 24 15 16 19 9 19 -16 0z"/>
<path d="M1995 990 c-3 -5 -18 -7 -33 -4 -22 4 -31 -1 -47 -25 -11 -17 -23
-31 -28 -31 -4 0 -24 -15 -43 -32 -20 -18 -43 -33 -52 -33 -10 0 -16 -7 -16
-17 2 -19 -81 -102 -94 -94 -4 2 -14 0 -22 -6 -12 -8 -11 -9 5 -4 11 3 -7 -20
-41 -52 -69 -64 -100 -107 -85 -116 8 -5 124 93 171 145 8 9 56 51 105 94 157
135 210 185 198 185 -6 0 -15 -4 -18 -10z"/>
<path d="M2490 989 c0 -5 5 -7 10 -4 6 3 10 8 10 11 0 2 -4 4 -10 4 -5 0 -10
-5 -10 -11z"/>
<path d="M2620 981 c-12 -24 -13 -34 -1 -27 9 6 22 46 15 46 -2 0 -8 -9 -14
-19z"/>
<path d="M2977 980 c-3 -11 0 -20 5 -20 6 0 5 -6 -2 -15 -10 -12 -10 -15 2
-15 14 0 38 39 38 60 0 19 -38 10 -43 -10z"/>
<path d="M2588 983 c7 -3 16 -2 19 1 4 3 -2 6 -13 5 -11 0 -14 -3 -6 -6z"/>
<path d="M2650 979 c0 -5 5 -7 10 -4 6 3 10 8 10 11 0 2 -4 4 -10 4 -5 0 -10
-5 -10 -11z"/>
<path d="M2535 972 c-5 -4 -10 -16 -9 -27 0 -11 -6 -29 -13 -40 -18 -26 -16
-40 2 -25 13 11 19 7 17 -11 -1 -4 7 -5 18 -2 11 3 17 9 15 14 -3 4 6 16 20
25 20 13 23 19 13 25 -22 15 -48 11 -42 -6 4 -8 1 -15 -6 -15 -6 0 -8 5 -5 10
3 6 1 10 -6 10 -7 0 -2 11 11 25 16 17 19 25 9 25 -8 0 -18 -4 -24 -8z"/>
<path d="M3132 960 c0 -14 2 -19 5 -12 2 6 2 18 0 25 -3 6 -5 1 -5 -13z"/>
<path d="M3070 949 c0 -22 0 -22 22 -3 12 10 18 13 14 7 -4 -7 -2 -13 4 -13
21 0 4 25 -18 28 -17 3 -22 -2 -22 -19z"/>
<path d="M2486 937 c-10 -15 -16 -34 -12 -42 3 -8 1 -15 -4 -15 -6 0 -10 -5
-10 -11 0 -24 24 0 37 36 17 50 11 67 -11 32z"/>
<path d="M2640 950 c-8 -6 -11 -10 -6 -10 5 0 2 -8 -6 -17 -10 -11 -13 -25 -9
-37 6 -16 10 -12 25 24 18 47 18 54 -4 40z"/>
<path d="M2968 913 c-9 -2 -19 -10 -21 -18 -8 -19 23 -12 35 8 5 9 8 16 6 16
-2 -1 -10 -3 -20 -6z"/>
<path d="M2735 900 c-3 -5 1 -10 9 -10 8 0 18 5 21 10 3 6 -1 10 -9 10 -8 0
-18 -4 -21 -10z"/>
<path d="M2595 880 c3 -5 8 -10 11 -10 2 0 4 5 4 10 0 6 -5 10 -11 10 -5 0 -7
-4 -4 -10z"/>
<path d="M2422 852 c-13 -13 -20 -27 -16 -33 8 -13 47 27 42 43 -3 7 -13 3
-26 -10z"/>
<path d="M2500 847 c0 -7 8 -20 18 -28 9 -9 22 -25 29 -35 11 -17 12 -17 8 6
-2 14 -4 28 -4 33 -1 4 -8 7 -17 7 -8 0 -13 4 -10 9 3 5 -1 11 -9 15 -8 3 -15
0 -15 -7z"/>
<path d="M2610 850 c-9 -6 -10 -10 -3 -10 6 0 15 5 18 10 8 12 4 12 -15 0z"/>
<path d="M270 839 c0 -5 5 -7 10 -4 6 3 10 8 10 11 0 2 -4 4 -10 4 -5 0 -10
-5 -10 -11z"/>
<path d="M232 818 c-7 -7 -12 -21 -11 -32 0 -15 2 -17 6 -6 3 8 12 19 19 23
15 9 19 27 6 27 -4 0 -13 -5 -20 -12z"/>
<path d="M2540 749 c0 -5 5 -7 10 -4 6 3 10 8 10 11 0 2 -4 4 -10 4 -5 0 -10
-5 -10 -11z"/>
<path d="M3252 505 c-17 -38 -15 -41 12 -16 14 13 29 21 34 17 5 -3 17 0 26 7
16 11 13 13 -21 15 -34 2 -41 -1 -51 -23z"/>
<path d="M1260 372 c0 -5 7 -9 15 -9 8 0 12 4 9 9 -3 4 -9 8 -15 8 -5 0 -9 -4
-9 -8z"/>
<path d="M843 263 c-42 -51 -57 -73 -50 -73 8 0 99 111 95 116 -3 2 -23 -17
-45 -43z"/>
<path d="M320 225 c-14 -16 -3 -20 19 -6 8 5 9 11 3 15 -5 3 -15 -1 -22 -9z"/>
<path d="M1304 198 l-19 -23 23 19 c21 18 27 26 19 26 -2 0 -12 -10 -23 -22z"/>
<path d="M2665 184 c-78 -34 -80 -37 -20 -30 46 5 45 5 -15 -10 -36 -9 -72
-23 -80 -31 -13 -14 -13 -15 1 -10 9 3 42 8 73 12 56 7 92 28 81 46 -4 5 -2 9
4 9 6 0 15 9 21 20 14 25 8 25 -65 -6z"/>
<path d="M2717 153 c-13 -12 -7 -23 13 -23 13 0 18 5 14 15 -7 16 -17 19 -27
8z"/>
<path d="M860 139 c0 -5 5 -7 10 -4 6 3 10 8 10 11 0 2 -4 4 -10 4 -5 0 -10
-5 -10 -11z"/>
<path d="M2820 131 c-51 -6 -55 -8 -61 -36 -5 -21 -7 -24 -8 -9 -1 30 -30 38
-54 17 -17 -16 -57 -84 -57 -98 0 -3 75 -5 166 -5 146 0 165 2 160 16 -3 8 -2
12 4 9 5 -3 23 21 40 55 l30 60 -56 0 c-52 0 -55 -1 -50 -22 l6 -23 -11 23
c-13 23 -13 23 -109 13z"/>
<path d="M780 103 c-16 -11 -25 -13 -28 -5 -4 13 -52 -5 -52 -20 0 -5 9 -4 19
2 26 14 31 13 25 -5 -4 -8 -14 -15 -24 -15 -17 0 -70 -40 -70 -53 0 -4 20 -7
43 -7 30 0 49 6 60 18 20 22 22 36 5 26 -7 -4 -10 -4 -6 0 3 4 8 6 10 4 4 -3
36 27 57 55 11 14 11 17 -1 17 -7 0 -24 -8 -38 -17z m-55 -63 c-3 -5 -12 -10
-18 -10 -7 0 -6 4 3 10 19 12 23 12 15 0z"/>
<path d="M2493 108 c-13 -6 -23 -17 -23 -23 0 -8 -22 -15 -54 -19 -30 -4 -71
-16 -92 -27 -21 -10 -44 -19 -51 -19 -6 0 -14 -4 -17 -9 -3 -5 41 -9 102 -10
l107 -1 22 40 c19 35 19 40 5 41 -10 0 -5 5 11 11 15 5 27 14 27 19 0 11 -9
11 -37 -3z"/>
<path d="M2595 97 c-60 -11 -69 -17 -100 -69 l-16 -28 73 0 74 0 27 55 c17 34
22 54 14 54 -6 -1 -39 -7 -72 -12z"/>
<path d="M1235 70 c3 -5 0 -10 -8 -10 -8 0 -22 -9 -32 -20 -10 -11 -14 -20 -9
-20 5 0 3 -4 -4 -8 -7 -5 17 -9 55 -10 53 -1 74 3 93 18 23 18 24 20 5 20 -12
0 -25 -4 -30 -9 -6 -4 -23 -11 -40 -15 -23 -5 -27 -4 -15 5 12 8 8 9 -15 5
-24 -5 -27 -4 -12 4 9 6 25 10 35 9 9 -2 28 3 41 10 19 10 21 15 10 22 -20 12
-82 11 -74 -1z"/>
<path d="M1427 43 c-4 -3 -21 -6 -39 -6 -18 1 -27 -2 -19 -4 10 -4 7 -9 -10
-19 l-24 -13 30 0 c28 0 84 34 73 44 -3 3 -8 2 -11 -2z"/>
<path d="M1430 20 l-25 -20 25 0 c15 0 30 8 38 20 16 27 -4 27 -38 0z"/>
<path d="M1482 20 c-11 -18 -10 -20 21 -20 18 0 39 6 46 13 11 9 13 9 7 0 -5
-10 3 -13 30 -13 47 0 37 11 -24 27 -63 16 -65 16 -80 -7z"/>
</g>
</svg>
